<svg id="svg" version="1.1" xmlns="http://www.w3.org/2000/svg" xmlns:xlink="http://www.w3.org/1999/xlink" width="400" height="400" viewBox="0, 0, 400,400"><g id="svgg"><path id="path0" d="M192.958 153.500 C 192.839 153.885,192.575 154.513,192.371 154.895 C 192.167 155.277,192.000 155.862,192.000 156.195 C 192.000 156.528,191.820 156.800,191.600 156.800 C 191.380 156.800,191.200 157.072,191.200 157.405 C 191.200 157.738,190.992 158.413,190.738 158.905 C 189.767 160.782,189.600 161.207,189.600 161.795 C 189.600 162.128,189.420 162.400,189.200 162.400 C 188.980 162.400,188.800 162.672,188.800 163.005 C 188.800 163.338,188.640 163.923,188.444 164.305 C 187.935 165.297,186.353 168.854,186.000 169.800 C 185.836 170.240,185.319 171.455,184.851 172.500 C 184.383 173.545,183.617 175.255,183.149 176.300 C 182.681 177.345,182.164 178.560,182.000 179.000 C 181.647 179.946,180.065 183.503,179.556 184.495 C 179.360 184.877,179.200 185.462,179.200 185.795 C 179.200 186.128,179.020 186.400,178.800 186.400 C 178.580 186.400,178.400 186.672,178.400 187.005 C 178.400 187.338,178.220 187.968,178.000 188.405 C 177.780 188.842,177.420 189.558,177.200 189.995 C 176.980 190.432,176.800 191.062,176.800 191.395 C 176.800 191.728,176.620 192.000,176.400 192.000 C 176.180 192.000,176.000 192.272,176.000 192.605 C 176.000 193.193,175.833 193.618,174.862 195.495 C 174.608 195.987,174.400 196.662,174.400 196.995 C 174.400 197.328,174.220 197.600,174.000 197.600 C 173.780 197.600,173.600 197.872,173.600 198.205 C 173.600 198.538,173.420 199.168,173.200 199.605 C 172.980 200.042,172.620 200.758,172.400 201.195 C 171.749 202.487,171.923 203.655,172.800 203.884 C 173.240 203.999,173.600 204.252,173.600 204.447 C 173.600 204.641,173.797 204.800,174.038 204.800 C 174.279 204.800,175.009 205.179,175.660 205.643 C 176.982 206.584,178.400 205.921,178.400 204.362 C 178.400 203.969,178.580 203.536,178.800 203.400 C 179.020 203.264,179.200 202.803,179.200 202.376 C 179.200 201.949,179.380 201.600,179.600 201.600 C 179.820 201.600,180.000 201.328,180.000 200.995 C 180.000 200.662,180.180 200.032,180.400 199.595 C 180.620 199.158,180.980 198.442,181.200 198.005 C 181.420 197.568,181.600 196.938,181.600 196.605 C 181.600 196.272,181.780 196.000,182.000 196.000 C 182.220 196.000,182.400 195.728,182.400 195.395 C 182.400 195.062,182.559 194.477,182.753 194.095 C 182.948 193.713,183.285 192.950,183.503 192.400 C 183.994 191.160,185.564 187.640,186.044 186.705 C 186.240 186.323,186.400 185.738,186.400 185.405 C 186.400 185.072,186.580 184.800,186.800 184.800 C 187.020 184.800,187.200 184.528,187.200 184.195 C 187.200 183.862,187.380 183.232,187.600 182.795 C 187.820 182.358,188.180 181.642,188.400 181.205 C 188.620 180.768,188.800 180.138,188.800 179.805 C 188.800 179.472,188.980 179.200,189.200 179.200 C 189.420 179.200,189.600 178.928,189.600 178.595 C 189.600 178.262,189.780 177.632,190.000 177.195 C 190.220 176.758,190.580 176.042,190.800 175.605 C 191.020 175.168,191.200 174.538,191.200 174.205 C 191.200 173.872,191.380 173.600,191.600 173.600 C 191.820 173.600,192.000 173.328,192.000 172.995 C 192.000 172.662,192.180 172.032,192.400 171.595 C 192.620 171.158,192.980 170.442,193.200 170.005 C 193.420 169.568,193.600 168.938,193.600 168.605 C 193.600 168.272,193.780 168.000,194.000 168.000 C 194.220 168.000,194.400 167.728,194.400 167.395 C 194.400 167.062,194.608 166.387,194.862 165.895 C 195.833 164.018,196.000 163.593,196.000 163.005 C 196.000 162.672,196.180 162.400,196.400 162.400 C 196.620 162.400,196.800 162.166,196.800 161.880 C 196.800 160.013,197.766 159.206,200.000 159.206 C 202.234 159.206,203.200 160.013,203.200 161.880 C 203.200 162.166,203.380 162.400,203.600 162.400 C 203.820 162.400,204.000 162.672,204.000 163.005 C 204.000 163.593,204.167 164.018,205.138 165.895 C 205.392 166.387,205.600 167.062,205.600 167.395 C 205.600 167.728,205.780 168.000,206.000 168.000 C 206.220 168.000,206.400 168.272,206.400 168.605 C 206.400 168.938,206.580 169.568,206.800 170.005 C 207.020 170.442,207.380 171.158,207.600 171.595 C 207.820 172.032,208.000 172.662,208.000 172.995 C 208.000 173.328,208.180 173.600,208.400 173.600 C 208.620 173.600,208.800 173.872,208.800 174.205 C 208.800 174.538,209.008 175.213,209.262 175.705 C 210.233 177.582,210.400 178.007,210.400 178.595 C 210.400 178.928,210.580 179.200,210.800 179.200 C 211.020 179.200,211.200 179.472,211.200 179.805 C 211.200 180.138,211.380 180.768,211.600 181.205 C 211.820 181.642,212.180 182.358,212.400 182.795 C 212.620 183.232,212.800 183.862,212.800 184.195 C 212.800 184.528,212.980 184.800,213.200 184.800 C 213.420 184.800,213.600 185.072,213.600 185.405 C 213.600 185.738,213.760 186.323,213.956 186.705 C 214.436 187.640,216.006 191.160,216.497 192.400 C 216.715 192.950,217.052 193.713,217.247 194.095 C 217.441 194.477,217.600 195.062,217.600 195.395 C 217.600 195.728,217.780 196.000,218.000 196.000 C 218.220 196.000,218.400 196.272,218.400 196.605 C 218.400 196.938,218.560 197.523,218.756 197.905 C 219.265 198.897,220.847 202.454,221.200 203.400 C 221.579 204.415,222.944 207.467,224.067 209.807 C 224.970 211.692,224.558 212.745,222.900 212.787 C 222.625 212.794,222.400 212.946,222.400 213.125 C 222.400 213.304,221.770 213.698,221.000 214.000 C 220.230 214.302,219.600 214.696,219.600 214.875 C 219.600 215.054,219.330 215.200,219.000 215.200 C 218.670 215.200,218.399 215.335,218.397 215.500 C 218.392 215.947,216.374 216.800,215.320 216.800 C 214.796 216.800,214.400 216.558,214.400 216.238 C 214.400 215.929,214.014 214.894,213.543 213.938 C 213.072 212.982,212.555 211.840,212.394 211.400 C 212.059 210.483,210.486 206.939,209.956 205.905 C 209.760 205.523,209.600 204.938,209.600 204.605 C 209.600 204.272,209.420 204.000,209.200 204.000 C 208.980 204.000,208.800 203.728,208.800 203.395 C 208.800 203.062,208.640 202.477,208.444 202.095 C 207.935 201.103,206.353 197.546,206.000 196.600 C 205.836 196.160,205.296 194.900,204.800 193.800 C 204.304 192.700,203.764 191.440,203.600 191.000 C 203.247 190.054,201.665 186.497,201.156 185.505 C 200.960 185.123,200.800 184.538,200.800 184.205 C 200.800 183.867,200.448 183.600,200.000 183.600 C 199.552 183.600,199.200 183.867,199.200 184.205 C 199.200 184.538,199.040 185.123,198.844 185.505 C 198.335 186.497,196.753 190.054,196.400 191.000 C 196.236 191.440,195.696 192.700,195.200 193.800 C 194.704 194.900,194.164 196.160,194.000 196.600 C 193.647 197.546,192.065 201.103,191.556 202.095 C 191.360 202.477,191.200 203.062,191.200 203.395 C 191.200 203.728,191.020 204.000,190.800 204.000 C 190.580 204.000,190.400 204.272,190.400 204.605 C 190.400 204.938,190.220 205.568,190.000 206.005 C 189.780 206.442,189.420 207.158,189.200 207.595 C 188.980 208.032,188.800 208.662,188.800 208.995 C 188.800 209.328,188.620 209.600,188.400 209.600 C 188.180 209.600,188.000 209.949,188.000 210.376 C 188.000 210.803,187.820 211.264,187.600 211.400 C 187.380 211.536,187.200 211.997,187.200 212.424 C 187.200 212.851,187.020 213.200,186.800 213.200 C 186.580 213.200,186.400 213.549,186.400 213.976 C 186.400 214.403,186.220 214.864,186.000 215.000 C 185.780 215.136,185.600 215.597,185.600 216.024 C 185.600 216.620,185.321 216.800,184.400 216.800 C 183.740 216.800,183.199 216.665,183.197 216.500 C 183.195 216.335,182.790 216.002,182.297 215.760 C 180.610 214.931,177.800 213.400,177.600 213.200 C 177.204 212.804,174.985 211.546,174.300 211.329 C 173.915 211.207,173.600 210.948,173.600 210.753 C 173.600 210.559,173.375 210.396,173.100 210.391 C 172.825 210.386,172.150 210.030,171.600 209.600 C 170.395 208.658,168.800 208.547,168.800 209.405 C 168.800 209.738,168.620 210.368,168.400 210.805 C 168.180 211.242,167.820 211.958,167.600 212.395 C 167.380 212.832,167.200 213.462,167.200 213.795 C 167.200 214.128,167.020 214.400,166.800 214.400 C 166.580 214.400,166.400 214.749,166.400 215.176 C 166.400 215.603,166.220 216.064,166.000 216.200 C 165.780 216.336,165.600 216.797,165.600 217.224 C 165.600 217.651,165.420 218.000,165.200 218.000 C 164.980 218.000,164.800 218.272,164.800 218.605 C 164.800 218.938,164.640 219.523,164.444 219.905 C 163.935 220.897,162.353 224.454,162.000 225.400 C 161.647 226.346,160.065 229.903,159.556 230.895 C 159.360 231.277,159.200 231.862,159.200 232.195 C 159.200 232.528,159.020 232.800,158.800 232.800 C 158.580 232.800,158.400 233.072,158.400 233.405 C 158.400 233.738,158.241 234.323,158.047 234.705 C 157.852 235.087,157.515 235.850,157.297 236.400 C 157.080 236.950,156.496 238.300,156.000 239.400 C 155.504 240.500,154.967 241.760,154.806 242.200 C 154.645 242.640,154.128 243.782,153.657 244.738 C 153.185 245.694,152.900 246.639,153.023 246.838 C 153.501 247.611,179.600 247.282,179.842 246.500 C 179.961 246.115,180.225 245.487,180.429 245.105 C 180.633 244.723,180.800 244.138,180.800 243.805 C 180.800 243.472,180.980 243.200,181.200 243.200 C 181.420 243.200,181.600 242.928,181.600 242.595 C 181.600 242.262,181.808 241.587,182.062 241.095 C 183.033 239.218,183.200 238.793,183.200 238.205 C 183.200 237.872,183.380 237.600,183.600 237.600 C 183.820 237.600,184.000 237.328,184.000 236.995 C 184.000 236.662,184.180 236.032,184.400 235.595 C 184.620 235.158,184.980 234.442,185.200 234.005 C 185.866 232.682,185.248 231.200,184.029 231.200 C 183.793 231.200,183.600 231.054,183.600 230.875 C 183.600 230.696,182.970 230.302,182.200 230.000 C 181.430 229.698,180.800 229.276,180.800 229.063 C 180.800 228.850,180.440 229.002,180.000 229.400 C 179.560 229.798,179.200 230.445,179.200 230.838 C 179.200 231.231,179.020 231.664,178.800 231.800 C 178.580 231.936,178.400 232.397,178.400 232.824 C 178.400 233.251,178.220 233.600,178.000 233.600 C 177.780 233.600,177.600 233.872,177.600 234.205 C 177.600 234.538,177.441 235.123,177.247 235.505 C 176.904 236.178,176.659 236.750,175.536 239.500 L 175.005 240.800 169.102 240.800 L 163.200 240.800 163.200 239.800 C 163.200 239.250,163.380 238.800,163.600 238.800 C 163.820 238.800,164.000 238.350,164.000 237.800 C 164.000 237.250,164.180 236.800,164.400 236.800 C 164.620 236.800,164.800 236.528,164.800 236.195 C 164.800 235.862,164.960 235.277,165.156 234.895 C 165.352 234.513,165.912 233.300,166.400 232.200 C 166.888 231.100,167.448 229.887,167.644 229.505 C 167.840 229.123,168.000 228.538,168.000 228.205 C 168.000 227.872,168.180 227.600,168.400 227.600 C 168.620 227.600,168.800 227.328,168.800 226.995 C 168.800 226.662,168.960 226.077,169.156 225.695 C 169.352 225.313,169.912 224.100,170.400 223.000 C 170.888 221.900,171.448 220.687,171.644 220.305 C 171.840 219.923,172.000 219.338,172.000 219.005 C 172.000 218.063,175.472 219.072,176.800 220.400 C 176.910 220.510,177.405 220.825,177.900 221.100 C 178.395 221.375,179.205 221.825,179.700 222.100 C 180.195 222.375,180.690 222.690,180.800 222.800 C 181.052 223.052,182.531 223.896,184.600 224.970 C 185.480 225.426,186.290 225.890,186.400 226.000 C 186.510 226.110,186.960 226.397,187.400 226.638 C 189.302 227.678,190.213 228.213,190.400 228.400 C 190.510 228.510,191.030 228.842,191.555 229.138 C 192.080 229.433,193.115 230.018,193.855 230.438 C 194.595 230.857,195.875 231.577,196.700 232.038 C 197.525 232.498,198.371 233.038,198.580 233.238 C 199.329 233.952,201.890 233.424,202.800 232.368 C 202.910 232.240,203.585 231.881,204.300 231.570 C 205.015 231.259,205.600 230.869,205.600 230.702 C 205.600 230.536,205.859 230.400,206.176 230.400 C 206.981 230.400,207.379 229.619,206.845 229.085 C 206.600 228.840,206.400 228.316,206.400 227.920 C 206.400 227.524,206.220 227.200,206.000 227.200 C 205.780 227.200,205.600 226.924,205.600 226.586 C 205.600 225.686,204.396 224.000,203.754 224.000 C 203.449 224.000,203.200 224.180,203.200 224.400 C 203.200 224.620,203.003 224.800,202.762 224.800 C 202.521 224.800,201.801 225.172,201.162 225.627 L 200.000 226.454 198.838 225.627 C 198.199 225.172,197.494 224.800,197.272 224.800 C 197.049 224.800,196.807 224.665,196.733 224.500 C 196.565 224.122,194.657 222.984,192.700 222.094 C 191.192 221.408,190.564 219.640,191.600 219.000 C 191.820 218.864,192.000 218.403,192.000 217.976 C 192.000 217.549,192.180 217.200,192.400 217.200 C 192.620 217.200,192.800 216.928,192.800 216.595 C 192.800 216.262,192.959 215.677,193.153 215.295 C 193.348 214.913,193.685 214.150,193.903 213.600 C 194.394 212.360,195.964 208.840,196.444 207.905 C 196.640 207.523,196.800 206.938,196.800 206.605 C 196.800 206.272,196.980 206.000,197.200 206.000 C 197.420 206.000,197.600 205.651,197.600 205.224 C 197.600 204.797,197.780 204.336,198.000 204.200 C 198.220 204.064,198.400 203.603,198.400 203.176 C 198.400 202.749,198.567 202.400,198.772 202.400 C 198.977 202.400,199.202 201.995,199.272 201.500 C 199.342 201.005,199.670 200.600,200.000 200.600 C 200.330 200.600,200.658 201.005,200.728 201.500 C 200.798 201.995,201.023 202.400,201.228 202.400 C 201.433 202.400,201.600 202.672,201.600 203.005 C 201.600 203.338,201.760 203.923,201.956 204.305 C 202.152 204.687,202.692 205.855,203.156 206.900 C 203.620 207.945,204.383 209.655,204.851 210.700 C 205.319 211.745,205.836 212.960,206.000 213.400 C 206.164 213.840,206.704 215.100,207.200 216.200 C 207.696 217.300,208.236 218.560,208.400 219.000 C 208.564 219.440,209.104 220.700,209.600 221.800 C 210.096 222.900,210.636 224.160,210.800 224.600 C 211.153 225.546,212.735 229.103,213.244 230.095 C 213.440 230.477,213.600 231.062,213.600 231.395 C 213.600 231.728,213.780 232.000,214.000 232.000 C 214.220 232.000,214.400 232.272,214.400 232.605 C 214.400 233.193,214.567 233.618,215.538 235.495 C 215.792 235.987,216.000 236.662,216.000 236.995 C 216.000 237.328,216.180 237.600,216.400 237.600 C 216.620 237.600,216.800 237.872,216.800 238.205 C 216.800 238.538,216.980 239.168,217.200 239.605 C 217.420 240.042,217.780 240.758,218.000 241.195 C 218.220 241.632,218.400 242.262,218.400 242.595 C 218.400 242.928,218.580 243.200,218.800 243.200 C 219.020 243.200,219.200 243.472,219.200 243.805 C 219.200 244.138,219.367 244.723,219.571 245.105 C 219.775 245.487,220.039 246.115,220.158 246.500 C 220.400 247.282,246.499 247.611,246.977 246.838 C 247.100 246.639,246.815 245.694,246.343 244.738 C 245.872 243.782,245.355 242.640,245.194 242.200 C 245.033 241.760,244.496 240.500,244.000 239.400 C 243.504 238.300,242.964 237.040,242.800 236.600 C 242.636 236.160,242.096 234.900,241.600 233.800 C 241.104 232.700,240.564 231.440,240.400 231.000 C 240.047 230.054,238.465 226.497,237.956 225.505 C 237.760 225.123,237.600 224.538,237.600 224.205 C 237.600 223.872,237.420 223.600,237.200 223.600 C 236.980 223.600,236.800 223.251,236.800 222.824 C 236.800 222.397,236.620 221.936,236.400 221.800 C 236.180 221.664,236.000 221.203,236.000 220.776 C 236.000 219.747,234.531 219.759,233.200 220.800 C 232.650 221.230,232.020 221.590,231.800 221.600 C 231.580 221.610,230.975 221.945,230.456 222.344 C 229.475 223.098,229.470 223.042,230.738 225.495 C 230.992 225.987,231.200 226.662,231.200 226.995 C 231.200 227.328,231.380 227.600,231.600 227.600 C 231.820 227.600,232.000 227.872,232.000 228.205 C 232.000 228.538,232.160 229.123,232.356 229.505 C 232.552 229.887,233.112 231.100,233.600 232.200 C 234.088 233.300,234.648 234.513,234.844 234.895 C 235.040 235.277,235.200 235.862,235.200 236.195 C 235.200 236.528,235.380 236.800,235.600 236.800 C 235.820 236.800,236.000 237.250,236.000 237.800 C 236.000 238.350,236.180 238.800,236.400 238.800 C 236.620 238.800,236.800 239.250,236.800 239.800 L 236.800 240.800 230.898 240.800 L 224.995 240.800 224.464 239.500 C 223.341 236.750,223.096 236.178,222.753 235.505 C 222.559 235.123,222.400 234.538,222.400 234.205 C 222.400 233.872,222.220 233.600,222.000 233.600 C 221.780 233.600,221.600 233.328,221.600 232.995 C 221.600 232.662,221.440 232.077,221.244 231.695 C 220.903 231.030,220.023 229.085,218.642 225.940 C 217.622 223.620,217.660 223.566,222.100 221.100 C 222.595 220.825,223.090 220.510,223.200 220.399 C 223.310 220.289,223.940 219.935,224.600 219.614 C 225.260 219.292,226.250 218.729,226.800 218.362 C 228.606 217.157,231.387 215.569,232.100 215.336 C 232.909 215.071,233.022 213.619,232.338 212.295 C 231.367 210.418,231.200 209.993,231.200 209.405 C 231.200 209.072,231.020 208.800,230.800 208.800 C 230.580 208.800,230.400 208.528,230.400 208.195 C 230.400 207.862,230.220 207.232,230.000 206.795 C 229.780 206.358,229.420 205.642,229.200 205.205 C 228.980 204.768,228.800 204.138,228.800 203.805 C 228.800 203.472,228.620 203.200,228.400 203.200 C 228.180 203.200,228.000 202.928,228.000 202.595 C 228.000 202.262,227.820 201.632,227.600 201.195 C 227.380 200.758,227.020 200.042,226.800 199.605 C 226.580 199.168,226.400 198.538,226.400 198.205 C 226.400 197.872,226.220 197.600,226.000 197.600 C 225.780 197.600,225.600 197.328,225.600 196.995 C 225.600 196.662,225.420 196.032,225.200 195.595 C 224.980 195.158,224.620 194.442,224.400 194.005 C 224.180 193.568,224.000 192.938,224.000 192.605 C 224.000 192.272,223.820 192.000,223.600 192.000 C 223.380 192.000,223.200 191.728,223.200 191.395 C 223.200 191.062,223.020 190.432,222.800 189.995 C 222.580 189.558,222.220 188.842,222.000 188.405 C 221.780 187.968,221.600 187.338,221.600 187.005 C 221.600 186.672,221.420 186.400,221.200 186.400 C 220.980 186.400,220.800 186.128,220.800 185.795 C 220.800 185.462,220.640 184.877,220.444 184.495 C 219.935 183.503,218.353 179.946,218.000 179.000 C 217.647 178.054,216.065 174.497,215.556 173.505 C 215.360 173.123,215.200 172.538,215.200 172.205 C 215.200 171.872,215.020 171.600,214.800 171.600 C 214.580 171.600,214.400 171.328,214.400 170.995 C 214.400 170.662,214.240 170.077,214.044 169.695 C 213.848 169.313,213.288 168.100,212.800 167.000 C 212.312 165.900,211.752 164.687,211.556 164.305 C 211.360 163.923,211.200 163.338,211.200 163.005 C 211.200 162.672,211.020 162.400,210.800 162.400 C 210.580 162.400,210.400 162.128,210.400 161.795 C 210.400 161.462,210.220 160.832,210.000 160.395 C 209.780 159.958,209.420 159.242,209.200 158.805 C 208.980 158.368,208.800 157.738,208.800 157.405 C 208.800 157.072,208.620 156.800,208.400 156.800 C 208.180 156.800,208.000 156.528,208.000 156.195 C 208.000 155.862,207.833 155.277,207.629 154.895 C 207.425 154.513,207.161 153.885,207.042 153.500 C 206.847 152.869,206.151 152.800,200.000 152.800 C 193.849 152.800,193.153 152.869,192.958 153.500 " stroke="none" fill="#fbfbfb" fill-rule="evenodd"></path><path id="path1" d="M192.100 152.198 C 191.825 152.511,191.600 153.033,191.600 153.360 C 191.600 153.686,191.420 154.064,191.200 154.200 C 190.980 154.336,190.800 154.797,190.800 155.224 C 190.800 155.651,190.980 156.000,191.200 156.000 C 191.420 156.000,191.600 155.640,191.600 155.200 C 191.600 154.760,191.780 154.400,192.000 154.400 C 192.220 154.400,192.400 154.034,192.400 153.587 C 192.400 153.141,192.670 152.671,193.000 152.545 C 193.330 152.418,193.600 152.154,193.600 151.957 C 193.600 151.410,192.661 151.561,192.100 152.198 M206.400 151.957 C 206.400 152.154,206.670 152.418,207.000 152.545 C 207.330 152.671,207.600 153.141,207.600 153.587 C 207.600 154.034,207.780 154.400,208.000 154.400 C 208.220 154.400,208.400 154.760,208.400 155.200 C 208.400 155.640,208.580 156.000,208.800 156.000 C 209.020 156.000,209.200 155.550,209.200 155.000 C 209.200 154.450,209.020 154.000,208.800 154.000 C 208.580 154.000,208.400 153.717,208.400 153.371 C 208.400 152.653,207.466 151.600,206.829 151.600 C 206.593 151.600,206.400 151.761,206.400 151.957 M190.000 157.200 C 190.000 157.640,189.820 158.000,189.600 158.000 C 189.380 158.000,189.200 158.360,189.200 158.800 C 189.200 159.240,189.020 159.600,188.800 159.600 C 188.580 159.600,188.400 160.050,188.400 160.600 C 188.400 161.150,188.580 161.600,188.800 161.600 C 189.020 161.600,189.200 161.240,189.200 160.800 C 189.200 160.360,189.380 160.000,189.600 160.000 C 189.820 160.000,190.000 159.550,190.000 159.000 C 190.000 158.450,190.180 158.000,190.400 158.000 C 190.620 158.000,190.800 157.640,190.800 157.200 C 190.800 156.760,190.620 156.400,190.400 156.400 C 190.180 156.400,190.000 156.760,190.000 157.200 M209.200 157.200 C 209.200 157.640,209.380 158.000,209.600 158.000 C 209.820 158.000,210.000 158.349,210.000 158.776 C 210.000 159.203,210.180 159.664,210.400 159.800 C 210.620 159.936,210.800 160.397,210.800 160.824 C 210.800 161.251,210.980 161.600,211.200 161.600 C 211.420 161.600,211.600 161.150,211.600 160.600 C 211.600 160.050,211.420 159.600,211.200 159.600 C 210.980 159.600,210.800 159.240,210.800 158.800 C 210.800 158.360,210.620 158.000,210.400 158.000 C 210.180 158.000,210.000 157.640,210.000 157.200 C 210.000 156.760,209.820 156.400,209.600 156.400 C 209.380 156.400,209.200 156.760,209.200 157.200 M198.116 160.400 C 198.001 160.840,197.748 161.200,197.553 161.200 C 197.359 161.200,197.200 161.560,197.200 162.000 C 197.200 162.440,197.380 162.800,197.600 162.800 C 197.820 162.800,198.000 162.517,198.000 162.171 C 198.000 161.280,198.993 160.400,200.000 160.400 C 201.007 160.400,202.000 161.280,202.000 162.171 C 202.000 162.517,202.180 162.800,202.400 162.800 C 202.620 162.800,202.800 162.440,202.800 162.000 C 202.800 161.560,202.641 161.200,202.447 161.200 C 202.252 161.200,201.999 160.840,201.884 160.400 C 201.717 159.761,201.338 159.600,200.000 159.600 C 198.662 159.600,198.283 159.761,198.116 160.400 M187.600 162.800 C 187.600 163.240,187.420 163.600,187.200 163.600 C 186.980 163.600,186.800 163.960,186.800 164.400 C 186.800 164.840,186.620 165.200,186.400 165.200 C 186.180 165.200,186.000 165.650,186.000 166.200 C 186.000 166.750,186.180 167.200,186.400 167.200 C 186.620 167.200,186.800 166.851,186.800 166.424 C 186.800 165.997,186.980 165.536,187.200 165.400 C 187.420 165.264,187.600 164.803,187.600 164.376 C 187.600 163.949,187.780 163.600,188.000 163.600 C 188.220 163.600,188.400 163.240,188.400 162.800 C 188.400 162.360,188.220 162.000,188.000 162.000 C 187.780 162.000,187.600 162.360,187.600 162.800 M211.600 162.800 C 211.600 163.240,211.780 163.600,212.000 163.600 C 212.220 163.600,212.400 163.949,212.400 164.376 C 212.400 164.803,212.580 165.264,212.800 165.400 C 213.020 165.536,213.200 165.997,213.200 166.424 C 213.200 166.851,213.380 167.200,213.600 167.200 C 213.820 167.200,214.000 166.750,214.000 166.200 C 214.000 165.650,213.820 165.200,213.600 165.200 C 213.380 165.200,213.200 164.840,213.200 164.400 C 213.200 163.960,213.020 163.600,212.800 163.600 C 212.580 163.600,212.400 163.240,212.400 162.800 C 212.400 162.360,212.220 162.000,212.000 162.000 C 211.780 162.000,211.600 162.360,211.600 162.800 M196.400 164.000 C 196.400 164.440,196.220 164.800,196.000 164.800 C 195.780 164.800,195.600 165.250,195.600 165.800 C 195.600 166.350,195.420 166.800,195.200 166.800 C 194.980 166.800,194.800 167.160,194.800 167.600 C 194.800 168.040,194.980 168.400,195.200 168.400 C 195.420 168.400,195.600 168.040,195.600 167.600 C 195.600 167.160,195.780 166.800,196.000 166.800 C 196.220 166.800,196.400 166.440,196.400 166.000 C 196.400 165.560,196.580 165.200,196.800 165.200 C 197.020 165.200,197.200 164.750,197.200 164.200 C 197.200 163.650,197.020 163.200,196.800 163.200 C 196.580 163.200,196.400 163.560,196.400 164.000 M202.800 164.200 C 202.800 164.750,202.980 165.200,203.200 165.200 C 203.420 165.200,203.600 165.560,203.600 166.000 C 203.600 166.440,203.780 166.800,204.000 166.800 C 204.220 166.800,204.400 167.160,204.400 167.600 C 204.400 168.040,204.580 168.400,204.800 168.400 C 205.020 168.400,205.200 168.040,205.200 167.600 C 205.200 167.160,205.020 166.800,204.800 166.800 C 204.580 166.800,204.400 166.350,204.400 165.800 C 204.400 165.250,204.220 164.800,204.000 164.800 C 203.780 164.800,203.600 164.440,203.600 164.000 C 203.600 163.560,203.420 163.200,203.200 163.200 C 202.980 163.200,202.800 163.650,202.800 164.200 M185.200 168.400 C 185.200 168.840,185.020 169.200,184.800 169.200 C 184.580 169.200,184.400 169.560,184.400 170.000 C 184.400 170.440,184.220 170.800,184.000 170.800 C 183.780 170.800,183.600 171.250,183.600 171.800 C 183.600 172.350,183.780 172.800,184.000 172.800 C 184.220 172.800,184.400 172.451,184.400 172.024 C 184.400 171.597,184.580 171.136,184.800 171.000 C 185.020 170.864,185.200 170.403,185.200 169.976 C 185.200 169.549,185.380 169.200,185.600 169.200 C 185.820 169.200,186.000 168.840,186.000 168.400 C 186.000 167.960,185.820 167.600,185.600 167.600 C 185.380 167.600,185.200 167.960,185.200 168.400 M214.000 168.400 C 214.000 168.840,214.180 169.200,214.400 169.200 C 214.620 169.200,214.800 169.549,214.800 169.976 C 214.800 170.403,214.980 170.864,215.200 171.000 C 215.420 171.136,215.600 171.597,215.600 172.024 C 215.600 172.451,215.780 172.800,216.000 172.800 C 216.220 172.800,216.400 173.160,216.400 173.600 C 216.400 174.040,216.580 174.400,216.800 174.400 C 217.020 174.400,217.200 174.141,217.200 173.824 C 217.200 173.507,217.020 173.136,216.800 173.000 C 216.580 172.864,216.400 172.313,216.400 171.776 C 216.400 171.239,216.220 170.800,216.000 170.800 C 215.780 170.800,215.600 170.440,215.600 170.000 C 215.600 169.560,215.420 169.200,215.200 169.200 C 214.980 169.200,214.800 168.840,214.800 168.400 C 214.800 167.960,214.620 167.600,214.400 167.600 C 214.180 167.600,214.000 167.960,214.000 168.400 M194.000 169.600 C 194.000 170.040,193.820 170.400,193.600 170.400 C 193.380 170.400,193.200 170.850,193.200 171.400 C 193.200 171.950,193.020 172.400,192.800 172.400 C 192.580 172.400,192.400 172.760,192.400 173.200 C 192.400 173.640,192.580 174.000,192.800 174.000 C 193.020 174.000,193.200 173.640,193.200 173.200 C 193.200 172.760,193.380 172.400,193.600 172.400 C 193.820 172.400,194.000 172.051,194.000 171.624 C 194.000 171.197,194.180 170.736,194.400 170.600 C 194.620 170.464,194.800 170.003,194.800 169.576 C 194.800 169.149,194.620 168.800,194.400 168.800 C 194.180 168.800,194.000 169.160,194.000 169.600 M205.200 169.576 C 205.200 170.003,205.380 170.464,205.600 170.600 C 205.820 170.736,206.000 171.197,206.000 171.624 C 206.000 172.051,206.180 172.400,206.400 172.400 C 206.620 172.400,206.800 172.760,206.800 173.200 C 206.800 173.640,206.980 174.000,207.200 174.000 C 207.420 174.000,207.600 173.640,207.600 173.200 C 207.600 172.760,207.420 172.400,207.200 172.400 C 206.980 172.400,206.800 171.950,206.800 171.400 C 206.800 170.850,206.620 170.400,206.400 170.400 C 206.180 170.400,206.000 170.040,206.000 169.600 C 206.000 169.160,205.820 168.800,205.600 168.800 C 205.380 168.800,205.200 169.149,205.200 169.576 M182.800 173.800 C 182.800 174.130,182.980 174.400,183.200 174.400 C 183.420 174.400,183.600 174.130,183.600 173.800 C 183.600 173.470,183.420 173.200,183.200 173.200 C 182.980 173.200,182.800 173.470,182.800 173.800 M191.600 175.200 C 191.600 175.640,191.420 176.000,191.200 176.000 C 190.980 176.000,190.800 176.450,190.800 177.000 C 190.800 177.550,190.620 178.000,190.400 178.000 C 190.180 178.000,190.000 178.360,190.000 178.800 C 190.000 179.240,190.180 179.600,190.400 179.600 C 190.620 179.600,190.800 179.240,190.800 178.800 C 190.800 178.360,190.980 178.000,191.200 178.000 C 191.420 178.000,191.600 177.640,191.600 177.200 C 191.600 176.760,191.780 176.400,192.000 176.400 C 192.220 176.400,192.400 175.950,192.400 175.400 C 192.400 174.850,192.220 174.400,192.000 174.400 C 191.780 174.400,191.600 174.760,191.600 175.200 M207.600 175.400 C 207.600 175.950,207.780 176.400,208.000 176.400 C 208.220 176.400,208.400 176.760,208.400 177.200 C 208.400 177.640,208.580 178.000,208.800 178.000 C 209.020 178.000,209.200 178.360,209.200 178.800 C 209.200 179.240,209.380 179.600,209.600 179.600 C 209.820 179.600,210.000 179.240,210.000 178.800 C 210.000 178.360,209.820 178.000,209.600 178.000 C 209.380 178.000,209.200 177.550,209.200 177.000 C 209.200 176.450,209.020 176.000,208.800 176.000 C 208.580 176.000,208.400 175.640,208.400 175.200 C 208.400 174.760,208.220 174.400,208.000 174.400 C 207.780 174.400,207.600 174.850,207.600 175.400 M182.000 175.600 C 182.000 176.040,181.820 176.400,181.600 176.400 C 181.380 176.400,181.200 176.850,181.200 177.400 C 181.200 177.950,181.380 178.400,181.600 178.400 C 181.820 178.400,182.000 178.051,182.000 177.624 C 182.000 177.197,182.180 176.736,182.400 176.600 C 182.620 176.464,182.800 176.003,182.800 175.576 C 182.800 175.149,182.620 174.800,182.400 174.800 C 182.180 174.800,182.000 175.160,182.000 175.600 M217.200 175.576 C 217.200 176.003,217.380 176.464,217.600 176.600 C 217.820 176.736,218.000 177.197,218.000 177.624 C 218.000 178.051,218.180 178.400,218.400 178.400 C 218.620 178.400,218.800 178.760,218.800 179.200 C 218.800 179.640,218.980 180.000,219.200 180.000 C 219.420 180.000,219.600 179.651,219.600 179.224 C 219.600 178.797,219.420 178.336,219.200 178.200 C 218.980 178.064,218.800 177.603,218.800 177.176 C 218.800 176.749,218.620 176.400,218.400 176.400 C 218.180 176.400,218.000 176.040,218.000 175.600 C 218.000 175.160,217.820 174.800,217.600 174.800 C 217.380 174.800,217.200 175.149,217.200 175.576 M180.400 179.400 C 180.400 179.730,180.580 180.000,180.800 180.000 C 181.020 180.000,181.200 179.730,181.200 179.400 C 181.200 179.070,181.020 178.800,180.800 178.800 C 180.580 178.800,180.400 179.070,180.400 179.400 M189.200 180.800 C 189.200 181.240,189.020 181.600,188.800 181.600 C 188.580 181.600,188.400 182.050,188.400 182.600 C 188.400 183.150,188.220 183.600,188.000 183.600 C 187.780 183.600,187.600 183.960,187.600 184.400 C 187.600 184.840,187.780 185.200,188.000 185.200 C 188.220 185.200,188.400 184.840,188.400 184.400 C 188.400 183.960,188.580 183.600,188.800 183.600 C 189.020 183.600,189.200 183.251,189.200 182.824 C 189.200 182.397,189.380 181.936,189.600 181.800 C 189.820 181.664,190.000 181.203,190.000 180.776 C 190.000 180.349,189.820 180.000,189.600 180.000 C 189.380 180.000,189.200 180.360,189.200 180.800 M210.000 180.776 C 210.000 181.203,210.180 181.664,210.400 181.800 C 210.620 181.936,210.800 182.397,210.800 182.824 C 210.800 183.251,210.980 183.600,211.200 183.600 C 211.420 183.600,211.600 183.960,211.600 184.400 C 211.600 184.840,211.780 185.200,212.000 185.200 C 212.220 185.200,212.400 184.840,212.400 184.400 C 212.400 183.960,212.220 183.600,212.000 183.600 C 211.780 183.600,211.600 183.150,211.600 182.600 C 211.600 182.050,211.420 181.600,211.200 181.600 C 210.980 181.600,210.800 181.240,210.800 180.800 C 210.800 180.360,210.620 180.000,210.400 180.000 C 210.180 180.000,210.000 180.349,210.000 180.776 M179.600 181.200 C 179.600 181.640,179.420 182.000,179.200 182.000 C 178.980 182.000,178.800 182.450,178.800 183.000 C 178.800 183.550,178.980 184.000,179.200 184.000 C 179.420 184.000,179.600 183.550,179.600 183.000 C 179.600 182.450,179.780 182.000,180.000 182.000 C 180.220 182.000,180.400 181.640,180.400 181.200 C 180.400 180.760,180.220 180.400,180.000 180.400 C 179.780 180.400,179.600 180.760,179.600 181.200 M219.600 181.176 C 219.600 181.603,219.780 182.064,220.000 182.200 C 220.220 182.336,220.400 182.797,220.400 183.224 C 220.400 183.651,220.580 184.000,220.800 184.000 C 221.020 184.000,221.200 184.360,221.200 184.800 C 221.200 185.240,221.380 185.600,221.600 185.600 C 221.820 185.600,222.000 185.341,222.000 185.024 C 222.000 184.707,221.820 184.336,221.600 184.200 C 221.380 184.064,221.200 183.513,221.200 182.976 C 221.200 182.439,221.020 182.000,220.800 182.000 C 220.580 182.000,220.400 181.640,220.400 181.200 C 220.400 180.760,220.220 180.400,220.000 180.400 C 219.780 180.400,219.600 180.749,219.600 181.176 M198.800 182.000 C 198.800 182.440,198.620 182.800,198.400 182.800 C 198.180 182.800,198.000 183.250,198.000 183.800 C 198.000 184.350,198.180 184.800,198.400 184.800 C 198.620 184.800,198.800 184.350,198.800 183.800 C 198.800 182.956,198.987 182.800,200.000 182.800 C 201.013 182.800,201.200 182.956,201.200 183.800 C 201.200 184.350,201.380 184.800,201.600 184.800 C 201.820 184.800,202.000 185.250,202.000 185.800 C 202.000 186.350,202.180 186.800,202.400 186.800 C 202.620 186.800,202.800 187.149,202.800 187.576 C 202.800 188.003,202.980 188.464,203.200 188.600 C 203.420 188.736,203.600 189.197,203.600 189.624 C 203.600 190.051,203.780 190.400,204.000 190.400 C 204.220 190.400,204.400 190.760,204.400 191.200 C 204.400 191.640,204.580 192.000,204.800 192.000 C 205.020 192.000,205.200 191.651,205.200 191.224 C 205.200 190.797,205.020 190.336,204.800 190.200 C 204.580 190.064,204.400 189.603,204.400 189.176 C 204.400 188.749,204.220 188.400,204.000 188.400 C 203.780 188.400,203.600 188.040,203.600 187.600 C 203.600 187.160,203.420 186.800,203.200 186.800 C 202.980 186.800,202.800 186.451,202.800 186.024 C 202.800 185.597,202.620 185.136,202.400 185.000 C 202.180 184.864,202.000 184.313,202.000 183.776 C 202.000 183.239,201.820 182.800,201.600 182.800 C 201.380 182.800,201.200 182.440,201.200 182.000 C 201.200 181.378,200.933 181.200,200.000 181.200 C 199.067 181.200,198.800 181.378,198.800 182.000 M178.000 185.000 C 178.000 185.330,178.180 185.600,178.400 185.600 C 178.620 185.600,178.800 185.330,178.800 185.000 C 178.800 184.670,178.620 184.400,178.400 184.400 C 178.180 184.400,178.000 184.670,178.000 185.000 M197.200 186.000 C 197.200 186.440,197.020 186.800,196.800 186.800 C 196.580 186.800,196.400 187.160,196.400 187.600 C 196.400 188.040,196.220 188.400,196.000 188.400 C 195.780 188.400,195.600 188.749,195.600 189.176 C 195.600 189.603,195.420 190.064,195.200 190.200 C 194.980 190.336,194.800 190.797,194.800 191.224 C 194.800 191.651,194.980 192.000,195.200 192.000 C 195.420 192.000,195.600 191.640,195.600 191.200 C 195.600 190.760,195.780 190.400,196.000 190.400 C 196.220 190.400,196.400 189.950,196.400 189.400 C 196.400 188.850,196.580 188.400,196.800 188.400 C 197.020 188.400,197.200 188.051,197.200 187.624 C 197.200 187.197,197.380 186.736,197.600 186.600 C 197.820 186.464,198.000 186.093,198.000 185.776 C 198.000 185.459,197.820 185.200,197.600 185.200 C 197.380 185.200,197.200 185.560,197.200 186.000 M186.800 186.400 C 186.800 186.840,186.620 187.200,186.400 187.200 C 186.180 187.200,186.000 187.549,186.000 187.976 C 186.000 188.403,185.820 188.864,185.600 189.000 C 185.380 189.136,185.200 189.597,185.200 190.024 C 185.200 190.451,185.380 190.800,185.600 190.800 C 185.820 190.800,186.000 190.440,186.000 190.000 C 186.000 189.560,186.180 189.200,186.400 189.200 C 186.620 189.200,186.800 188.851,186.800 188.424 C 186.800 187.997,186.980 187.536,187.200 187.400 C 187.420 187.264,187.600 186.803,187.600 186.376 C 187.600 185.949,187.420 185.600,187.200 185.600 C 186.980 185.600,186.800 185.960,186.800 186.400 M212.400 186.376 C 212.400 186.803,212.580 187.264,212.800 187.400 C 213.020 187.536,213.200 187.997,213.200 188.424 C 213.200 188.851,213.380 189.200,213.600 189.200 C 213.820 189.200,214.000 189.560,214.000 190.000 C 214.000 190.440,214.180 190.800,214.400 190.800 C 214.620 190.800,214.800 190.451,214.800 190.024 C 214.800 189.597,214.620 189.136,214.400 189.000 C 214.180 188.864,214.000 188.403,214.000 187.976 C 214.000 187.549,213.820 187.200,213.600 187.200 C 213.380 187.200,213.200 186.840,213.200 186.400 C 213.200 185.960,213.020 185.600,212.800 185.600 C 212.580 185.600,212.400 185.949,212.400 186.376 M177.200 186.800 C 177.200 187.240,177.020 187.600,176.800 187.600 C 176.580 187.600,176.400 187.949,176.400 188.376 C 176.400 188.803,176.220 189.264,176.000 189.400 C 175.780 189.536,175.600 189.997,175.600 190.424 C 175.600 190.851,175.780 191.200,176.000 191.200 C 176.220 191.200,176.400 190.840,176.400 190.400 C 176.400 189.960,176.580 189.600,176.800 189.600 C 177.020 189.600,177.200 189.150,177.200 188.600 C 177.200 188.050,177.380 187.600,177.600 187.600 C 177.820 187.600,178.000 187.240,178.000 186.800 C 178.000 186.360,177.820 186.000,177.600 186.000 C 177.380 186.000,177.200 186.360,177.200 186.800 M222.000 186.800 C 222.000 187.240,222.180 187.600,222.400 187.600 C 222.620 187.600,222.800 188.050,222.800 188.600 C 222.800 189.150,222.980 189.600,223.200 189.600 C 223.420 189.600,223.600 189.960,223.600 190.400 C 223.600 190.840,223.780 191.200,224.000 191.200 C 224.220 191.200,224.400 190.750,224.400 190.200 C 224.400 189.650,224.220 189.200,224.000 189.200 C 223.780 189.200,223.600 188.840,223.600 188.400 C 223.600 187.960,223.420 187.600,223.200 187.600 C 222.980 187.600,222.800 187.240,222.800 186.800 C 222.800 186.360,222.620 186.000,222.400 186.000 C 222.180 186.000,222.000 186.360,222.000 186.800 M184.400 192.000 C 184.400 192.440,184.220 192.800,184.000 192.800 C 183.780 192.800,183.600 193.250,183.600 193.800 C 183.600 194.350,183.420 194.800,183.200 194.800 C 182.980 194.800,182.800 195.160,182.800 195.600 C 182.800 196.040,182.980 196.400,183.200 196.400 C 183.420 196.400,183.600 196.040,183.600 195.600 C 183.600 195.160,183.780 194.800,184.000 194.800 C 184.220 194.800,184.400 194.451,184.400 194.024 C 184.400 193.597,184.580 193.136,184.800 193.000 C 185.020 192.864,185.200 192.403,185.200 191.976 C 185.200 191.549,185.020 191.200,184.800 191.200 C 184.580 191.200,184.400 191.560,184.400 192.000 M214.800 191.776 C 214.800 192.093,214.980 192.464,215.200 192.600 C 215.420 192.736,215.600 193.287,215.600 193.824 C 215.600 194.361,215.780 194.800,216.000 194.800 C 216.220 194.800,216.400 195.160,216.400 195.600 C 216.400 196.040,216.580 196.400,216.800 196.400 C 217.020 196.400,217.200 196.040,217.200 195.600 C 217.200 195.160,217.020 194.800,216.800 194.800 C 216.580 194.800,216.400 194.350,216.400 193.800 C 216.400 193.250,216.220 192.800,216.000 192.800 C 215.780 192.800,215.600 192.440,215.600 192.000 C 215.600 191.560,215.420 191.200,215.200 191.200 C 214.980 191.200,214.800 191.459,214.800 191.776 M174.800 192.400 C 174.800 192.840,174.620 193.200,174.400 193.200 C 174.180 193.200,174.000 193.549,174.000 193.976 C 174.000 194.403,173.820 194.864,173.600 195.000 C 173.380 195.136,173.200 195.597,173.200 196.024 C 173.200 196.451,173.380 196.800,173.600 196.800 C 173.820 196.800,174.000 196.440,174.000 196.000 C 174.000 195.560,174.180 195.200,174.400 195.200 C 174.620 195.200,174.800 194.750,174.800 194.200 C 174.800 193.650,174.980 193.200,175.200 193.200 C 175.420 193.200,175.600 192.840,175.600 192.400 C 175.600 191.960,175.420 191.600,175.200 191.600 C 174.980 191.600,174.800 191.960,174.800 192.400 M224.400 192.400 C 224.400 192.840,224.580 193.200,224.800 193.200 C 225.020 193.200,225.200 193.650,225.200 194.200 C 225.200 194.750,225.380 195.200,225.600 195.200 C 225.820 195.200,226.000 195.560,226.000 196.000 C 226.000 196.440,226.180 196.800,226.400 196.800 C 226.620 196.800,226.800 196.451,226.800 196.024 C 226.800 195.597,226.620 195.136,226.400 195.000 C 226.180 194.864,226.000 194.403,226.000 193.976 C 226.000 193.549,225.820 193.200,225.600 193.200 C 225.380 193.200,225.200 192.840,225.200 192.400 C 225.200 191.960,225.020 191.600,224.800 191.600 C 224.580 191.600,224.400 191.960,224.400 192.400 M194.000 193.200 C 194.000 193.640,193.820 194.000,193.600 194.000 C 193.380 194.000,193.200 194.439,193.200 194.976 C 193.200 195.513,193.020 196.064,192.800 196.200 C 192.580 196.336,192.400 196.707,192.400 197.024 C 192.400 197.341,192.580 197.600,192.800 197.600 C 193.020 197.600,193.200 197.240,193.200 196.800 C 193.200 196.360,193.380 196.000,193.600 196.000 C 193.820 196.000,194.000 195.550,194.000 195.000 C 194.000 194.450,194.180 194.000,194.400 194.000 C 194.620 194.000,194.800 193.640,194.800 193.200 C 194.800 192.760,194.620 192.400,194.400 192.400 C 194.180 192.400,194.000 192.760,194.000 193.200 M205.200 193.176 C 205.200 193.603,205.380 194.064,205.600 194.200 C 205.820 194.336,206.000 194.797,206.000 195.224 C 206.000 195.651,206.180 196.000,206.400 196.000 C 206.620 196.000,206.800 196.360,206.800 196.800 C 206.800 197.240,206.980 197.600,207.200 197.600 C 207.420 197.600,207.600 197.251,207.600 196.824 C 207.600 196.397,207.420 195.936,207.200 195.800 C 206.980 195.664,206.800 195.203,206.800 194.776 C 206.800 194.349,206.620 194.000,206.400 194.000 C 206.180 194.000,206.000 193.640,206.000 193.200 C 206.000 192.760,205.820 192.400,205.600 192.400 C 205.380 192.400,205.200 192.749,205.200 193.176 M182.000 197.600 C 182.000 198.040,181.820 198.400,181.600 198.400 C 181.380 198.400,181.200 198.850,181.200 199.400 C 181.200 199.950,181.020 200.400,180.800 200.400 C 180.580 200.400,180.400 200.760,180.400 201.200 C 180.400 201.640,180.580 202.000,180.800 202.000 C 181.020 202.000,181.200 201.640,181.200 201.200 C 181.200 200.760,181.380 200.400,181.600 200.400 C 181.820 200.400,182.000 200.051,182.000 199.624 C 182.000 199.197,182.180 198.736,182.400 198.600 C 182.620 198.464,182.800 198.003,182.800 197.576 C 182.800 197.149,182.620 196.800,182.400 196.800 C 182.180 196.800,182.000 197.160,182.000 197.600 M217.200 197.576 C 217.200 198.003,217.380 198.464,217.600 198.600 C 217.820 198.736,218.000 199.197,218.000 199.624 C 218.000 200.051,218.180 200.400,218.400 200.400 C 218.620 200.400,218.800 200.760,218.800 201.200 C 218.800 201.640,218.980 202.000,219.200 202.000 C 219.420 202.000,219.600 201.640,219.600 201.200 C 219.600 200.760,219.420 200.400,219.200 200.400 C 218.980 200.400,218.800 199.950,218.800 199.400 C 218.800 198.850,218.620 198.400,218.400 198.400 C 218.180 198.400,218.000 198.040,218.000 197.600 C 218.000 197.160,217.820 196.800,217.600 196.800 C 217.380 196.800,217.200 197.149,217.200 197.576 M172.400 198.000 C 172.400 198.440,172.220 198.800,172.000 198.800 C 171.780 198.800,171.600 199.160,171.600 199.600 C 171.600 200.040,171.420 200.400,171.200 200.400 C 170.980 200.400,170.800 200.850,170.800 201.400 C 170.800 201.950,170.980 202.400,171.200 202.400 C 171.420 202.400,171.600 202.040,171.600 201.600 C 171.600 201.160,171.780 200.800,172.000 200.800 C 172.220 200.800,172.400 200.350,172.400 199.800 C 172.400 199.250,172.580 198.800,172.800 198.800 C 173.020 198.800,173.200 198.440,173.200 198.000 C 173.200 197.560,173.020 197.200,172.800 197.200 C 172.580 197.200,172.400 197.560,172.400 198.000 M226.800 198.000 C 226.800 198.440,226.980 198.800,227.200 198.800 C 227.420 198.800,227.600 199.250,227.600 199.800 C 227.600 200.350,227.780 200.800,228.000 200.800 C 228.220 200.800,228.400 201.160,228.400 201.600 C 228.400 202.040,228.580 202.400,228.800 202.400 C 229.020 202.400,229.200 201.950,229.200 201.400 C 229.200 200.850,229.020 200.400,228.800 200.400 C 228.580 200.400,228.400 200.040,228.400 199.600 C 228.400 199.160,228.220 198.800,228.000 198.800 C 227.780 198.800,227.600 198.440,227.600 198.000 C 227.600 197.560,227.420 197.200,227.200 197.200 C 226.980 197.200,226.800 197.560,226.800 198.000 M191.600 198.800 C 191.600 199.240,191.420 199.600,191.200 199.600 C 190.980 199.600,190.800 199.949,190.800 200.376 C 190.800 200.803,190.620 201.264,190.400 201.400 C 190.180 201.536,190.000 201.997,190.000 202.424 C 190.000 202.851,190.180 203.200,190.400 203.200 C 190.620 203.200,190.800 202.840,190.800 202.400 C 190.800 201.960,190.980 201.600,191.200 201.600 C 191.420 201.600,191.600 201.150,191.600 200.600 C 191.600 200.050,191.780 199.600,192.000 199.600 C 192.220 199.600,192.400 199.240,192.400 198.800 C 192.400 198.360,192.220 198.000,192.000 198.000 C 191.780 198.000,191.600 198.360,191.600 198.800 M207.600 198.800 C 207.600 199.240,207.780 199.600,208.000 199.600 C 208.220 199.600,208.400 200.050,208.400 200.600 C 208.400 201.150,208.580 201.600,208.800 201.600 C 209.020 201.600,209.200 201.960,209.200 202.400 C 209.200 202.840,209.380 203.200,209.600 203.200 C 209.820 203.200,210.000 202.750,210.000 202.200 C 210.000 201.650,209.820 201.200,209.600 201.200 C 209.380 201.200,209.200 200.840,209.200 200.400 C 209.200 199.960,209.020 199.600,208.800 199.600 C 208.580 199.600,208.400 199.240,208.400 198.800 C 208.400 198.360,208.220 198.000,208.000 198.000 C 207.780 198.000,207.600 198.360,207.600 198.800 M199.600 202.000 C 199.600 202.440,199.420 202.800,199.200 202.800 C 198.980 202.800,198.800 203.160,198.800 203.600 C 198.800 204.585,199.146 204.619,199.843 203.700 C 200.349 203.033,200.375 203.033,200.387 203.700 C 200.402 204.535,201.200 204.657,201.200 203.824 C 201.200 203.507,201.020 203.136,200.800 203.000 C 200.580 202.864,200.400 202.403,200.400 201.976 C 200.400 201.549,200.220 201.200,200.000 201.200 C 199.780 201.200,199.600 201.560,199.600 202.000 M179.600 203.000 C 179.600 203.330,179.780 203.600,180.000 203.600 C 180.220 203.600,180.400 203.330,180.400 203.000 C 180.400 202.670,180.220 202.400,180.000 202.400 C 179.780 202.400,179.600 202.670,179.600 203.000 M219.600 203.176 C 219.600 203.603,219.780 204.064,220.000 204.200 C 220.220 204.336,220.400 204.797,220.400 205.224 C 220.400 205.651,220.580 206.000,220.800 206.000 C 221.020 206.000,221.200 206.360,221.200 206.800 C 221.200 207.240,221.380 207.600,221.600 207.600 C 221.820 207.600,222.000 207.251,222.000 206.824 C 222.000 206.397,221.820 205.936,221.600 205.800 C 221.380 205.664,221.200 205.203,221.200 204.776 C 221.200 204.349,221.020 204.000,220.800 204.000 C 220.580 204.000,220.400 203.640,220.400 203.200 C 220.400 202.760,220.220 202.400,220.000 202.400 C 219.780 202.400,219.600 202.749,219.600 203.176 M229.200 203.600 C 229.200 204.040,229.380 204.400,229.600 204.400 C 229.820 204.400,230.000 204.749,230.000 205.176 C 230.000 205.603,230.180 206.064,230.400 206.200 C 230.620 206.336,230.800 206.797,230.800 207.224 C 230.800 207.651,230.980 208.000,231.200 208.000 C 231.420 208.000,231.600 207.550,231.600 207.000 C 231.600 206.450,231.420 206.000,231.200 206.000 C 230.980 206.000,230.800 205.640,230.800 205.200 C 230.800 204.760,230.620 204.400,230.400 204.400 C 230.180 204.400,230.000 204.040,230.000 203.600 C 230.000 203.160,229.820 202.800,229.600 202.800 C 229.380 202.800,229.200 203.160,229.200 203.600 M170.800 203.829 C 170.800 204.221,171.922 205.200,172.371 205.200 C 173.007 205.200,172.892 204.758,172.100 204.157 C 171.356 203.592,170.800 203.452,170.800 203.829 M189.200 204.400 C 189.200 204.840,189.020 205.200,188.800 205.200 C 188.580 205.200,188.400 205.549,188.400 205.976 C 188.400 206.403,188.220 206.864,188.000 207.000 C 187.780 207.136,187.600 207.597,187.600 208.024 C 187.600 208.451,187.780 208.800,188.000 208.800 C 188.220 208.800,188.400 208.451,188.400 208.024 C 188.400 207.597,188.580 207.136,188.800 207.000 C 189.020 206.864,189.200 206.403,189.200 205.976 C 189.200 205.549,189.380 205.200,189.600 205.200 C 189.820 205.200,190.000 204.840,190.000 204.400 C 190.000 203.960,189.820 203.600,189.600 203.600 C 189.380 203.600,189.200 203.960,189.200 204.400 M210.000 204.400 C 210.000 204.840,210.180 205.200,210.400 205.200 C 210.620 205.200,210.800 205.549,210.800 205.976 C 210.800 206.403,210.980 206.864,211.200 207.000 C 211.420 207.136,211.600 207.597,211.600 208.024 C 211.600 208.451,211.780 208.800,212.000 208.800 C 212.220 208.800,212.400 208.350,212.400 207.800 C 212.400 207.250,212.220 206.800,212.000 206.800 C 211.780 206.800,211.600 206.440,211.600 206.000 C 211.600 205.560,211.420 205.200,211.200 205.200 C 210.980 205.200,210.800 204.840,210.800 204.400 C 210.800 203.960,210.620 203.600,210.400 203.600 C 210.180 203.600,210.000 203.960,210.000 204.400 M178.800 204.932 C 178.800 206.346,177.221 207.053,175.635 206.351 C 174.956 206.051,174.400 205.669,174.400 205.502 C 174.400 205.336,174.130 205.200,173.800 205.200 C 173.470 205.200,173.200 205.344,173.200 205.520 C 173.200 206.085,174.138 206.800,174.880 206.800 C 175.276 206.800,175.600 206.959,175.600 207.153 C 175.600 207.637,177.025 207.971,178.000 207.716 C 178.443 207.600,178.800 207.170,178.800 206.753 C 178.800 206.339,178.980 206.000,179.200 206.000 C 179.420 206.000,179.600 205.550,179.600 205.000 C 179.600 204.450,179.420 204.000,179.200 204.000 C 178.980 204.000,178.800 204.420,178.800 204.932 M198.000 205.576 C 198.000 206.003,197.820 206.464,197.600 206.600 C 197.380 206.736,197.200 207.197,197.200 207.624 C 197.200 208.051,197.020 208.400,196.800 208.400 C 196.580 208.400,196.400 208.850,196.400 209.400 C 196.400 209.950,196.220 210.400,196.000 210.400 C 195.780 210.400,195.600 210.749,195.600 211.176 C 195.600 211.603,195.420 212.064,195.200 212.200 C 194.980 212.336,194.800 212.797,194.800 213.224 C 194.800 213.651,194.620 214.000,194.400 214.000 C 194.180 214.000,194.000 214.360,194.000 214.800 C 194.000 215.240,194.180 215.600,194.400 215.600 C 194.620 215.600,194.800 215.240,194.800 214.800 C 194.800 214.360,194.980 214.000,195.200 214.000 C 195.420 214.000,195.600 213.640,195.600 213.200 C 195.600 212.760,195.780 212.400,196.000 212.400 C 196.220 212.400,196.400 211.961,196.400 211.424 C 196.400 210.887,196.580 210.336,196.800 210.200 C 197.020 210.064,197.200 209.603,197.200 209.176 C 197.200 208.749,197.380 208.400,197.600 208.400 C 197.820 208.400,198.000 208.040,198.000 207.600 C 198.000 207.160,198.180 206.800,198.400 206.800 C 198.620 206.800,198.800 206.350,198.800 205.800 C 198.800 205.250,198.620 204.800,198.400 204.800 C 198.180 204.800,198.000 205.149,198.000 205.576 M201.200 205.800 C 201.200 206.350,201.380 206.800,201.600 206.800 C 201.820 206.800,202.000 207.160,202.000 207.600 C 202.000 208.040,202.180 208.400,202.400 208.400 C 202.620 208.400,202.800 208.749,202.800 209.176 C 202.800 209.603,202.980 210.064,203.200 210.200 C 203.420 210.336,203.600 210.887,203.600 211.424 C 203.600 211.961,203.780 212.400,204.000 212.400 C 204.220 212.400,204.400 212.760,204.400 213.200 C 204.400 213.640,204.580 214.000,204.800 214.000 C 205.020 214.000,205.200 214.349,205.200 214.776 C 205.200 215.203,205.380 215.664,205.600 215.800 C 205.820 215.936,206.000 216.487,206.000 217.024 C 206.000 217.561,206.180 218.000,206.400 218.000 C 206.620 218.000,206.800 218.360,206.800 218.800 C 206.800 219.240,206.980 219.600,207.200 219.600 C 207.420 219.600,207.600 219.949,207.600 220.376 C 207.600 220.803,207.780 221.264,208.000 221.400 C 208.220 221.536,208.400 222.030,208.400 222.497 C 208.400 223.431,209.853 226.662,210.435 227.021 C 210.636 227.146,210.800 227.687,210.800 228.224 C 210.800 228.761,210.980 229.200,211.200 229.200 C 211.420 229.200,211.600 229.560,211.600 230.000 C 211.600 230.440,211.780 230.800,212.000 230.800 C 212.220 230.800,212.400 231.160,212.400 231.600 C 212.400 232.040,212.580 232.400,212.800 232.400 C 213.020 232.400,213.200 232.040,213.200 231.600 C 213.200 231.160,213.020 230.800,212.800 230.800 C 212.580 230.800,212.400 230.451,212.400 230.024 C 212.400 229.597,212.220 229.136,212.000 229.000 C 211.780 228.864,211.600 228.403,211.600 227.976 C 211.600 227.549,211.420 227.200,211.200 227.200 C 210.980 227.200,210.800 226.750,210.800 226.200 C 210.800 225.650,210.620 225.200,210.400 225.200 C 210.180 225.200,210.000 224.851,210.000 224.424 C 210.000 223.997,209.820 223.536,209.600 223.400 C 209.380 223.264,209.200 222.803,209.200 222.376 C 209.200 221.949,209.020 221.600,208.800 221.600 C 208.580 221.600,208.400 221.150,208.400 220.600 C 208.400 220.050,208.220 219.600,208.000 219.600 C 207.780 219.600,207.600 219.251,207.600 218.824 C 207.600 218.397,207.420 217.936,207.200 217.800 C 206.980 217.664,206.800 217.203,206.800 216.776 C 206.800 216.349,206.620 216.000,206.400 216.000 C 206.180 216.000,206.000 215.550,206.000 215.000 C 206.000 214.450,205.820 214.000,205.600 214.000 C 205.380 214.000,205.200 213.651,205.200 213.224 C 205.200 212.797,205.020 212.336,204.800 212.200 C 204.580 212.064,204.400 211.603,204.400 211.176 C 204.400 210.749,204.220 210.400,204.000 210.400 C 203.780 210.400,203.600 209.950,203.600 209.400 C 203.600 208.850,203.420 208.400,203.200 208.400 C 202.980 208.400,202.800 208.051,202.800 207.624 C 202.800 207.197,202.620 206.736,202.400 206.600 C 202.180 206.464,202.000 206.003,202.000 205.576 C 202.000 205.149,201.820 204.800,201.600 204.800 C 201.380 204.800,201.200 205.250,201.200 205.800 M168.400 207.200 C 168.400 207.420,168.760 207.600,169.200 207.600 C 169.640 207.600,170.000 207.420,170.000 207.200 C 170.000 206.980,169.640 206.800,169.200 206.800 C 168.760 206.800,168.400 206.980,168.400 207.200 M170.400 207.932 C 170.400 208.115,170.895 208.520,171.500 208.832 C 172.105 209.144,172.690 209.489,172.800 209.599 C 173.194 209.995,175.413 211.254,176.100 211.471 C 176.485 211.593,176.800 211.852,176.800 212.047 C 176.800 212.241,177.070 212.400,177.400 212.400 C 177.730 212.400,178.000 212.297,178.000 212.171 C 178.000 211.702,176.835 210.800,176.229 210.800 C 175.883 210.800,175.600 210.620,175.600 210.400 C 175.600 210.180,175.246 210.000,174.813 210.000 C 174.260 210.000,174.097 209.812,174.267 209.370 C 174.420 208.971,174.306 208.767,173.954 208.813 C 173.136 208.922,171.600 208.361,171.600 207.953 C 171.600 207.759,171.330 207.600,171.000 207.600 C 170.670 207.600,170.400 207.750,170.400 207.932 M222.000 208.600 C 222.000 208.930,222.180 209.200,222.400 209.200 C 222.620 209.200,222.800 208.930,222.800 208.600 C 222.800 208.270,222.620 208.000,222.400 208.000 C 222.180 208.000,222.000 208.270,222.000 208.600 M167.600 209.200 C 167.600 209.640,167.420 210.000,167.200 210.000 C 166.980 210.000,166.800 210.360,166.800 210.800 C 166.800 211.240,166.620 211.600,166.400 211.600 C 166.180 211.600,166.000 212.050,166.000 212.600 C 166.000 213.150,166.180 213.600,166.400 213.600 C 166.620 213.600,166.800 213.251,166.800 212.824 C 166.800 212.397,166.980 211.936,167.200 211.800 C 167.420 211.664,167.600 211.203,167.600 210.776 C 167.600 210.349,167.780 210.000,168.000 210.000 C 168.220 210.000,168.400 209.640,168.400 209.200 C 168.400 208.760,168.220 208.400,168.000 208.400 C 167.780 208.400,167.600 208.760,167.600 209.200 M231.600 209.200 C 231.600 209.640,231.780 210.000,232.000 210.000 C 232.220 210.000,232.400 210.349,232.400 210.776 C 232.400 211.203,232.580 211.664,232.800 211.800 C 233.020 211.936,233.200 212.397,233.200 212.824 C 233.200 213.251,233.380 213.600,233.600 213.600 C 233.820 213.600,234.000 213.150,234.000 212.600 C 234.000 212.050,233.820 211.600,233.600 211.600 C 233.380 211.600,233.200 211.240,233.200 210.800 C 233.200 210.360,233.020 210.000,232.800 210.000 C 232.580 210.000,232.400 209.640,232.400 209.200 C 232.400 208.760,232.220 208.400,232.000 208.400 C 231.780 208.400,231.600 208.760,231.600 209.200 M186.800 210.000 C 186.800 210.440,186.620 210.800,186.400 210.800 C 186.180 210.800,186.000 211.160,186.000 211.600 C 186.000 212.040,185.820 212.400,185.600 212.400 C 185.380 212.400,185.200 212.850,185.200 213.400 C 185.200 213.950,185.380 214.400,185.600 214.400 C 185.820 214.400,186.000 214.051,186.000 213.624 C 186.000 213.197,186.180 212.736,186.400 212.600 C 186.620 212.464,186.800 212.003,186.800 211.576 C 186.800 211.149,186.980 210.800,187.200 210.800 C 187.420 210.800,187.600 210.440,187.600 210.000 C 187.600 209.560,187.420 209.200,187.200 209.200 C 186.980 209.200,186.800 209.560,186.800 210.000 M212.400 210.000 C 212.400 210.440,212.580 210.800,212.800 210.800 C 213.020 210.800,213.200 211.149,213.200 211.576 C 213.200 212.003,213.380 212.464,213.600 212.600 C 213.820 212.736,214.000 213.197,214.000 213.624 C 214.000 214.051,214.180 214.400,214.400 214.400 C 214.620 214.400,214.800 213.950,214.800 213.400 C 214.800 212.850,214.620 212.400,214.400 212.400 C 214.180 212.400,214.000 212.040,214.000 211.600 C 214.000 211.160,213.820 210.800,213.600 210.800 C 213.380 210.800,213.200 210.440,213.200 210.000 C 213.200 209.560,213.020 209.200,212.800 209.200 C 212.580 209.200,212.400 209.560,212.400 210.000 M222.800 210.600 C 222.800 211.150,222.620 211.600,222.400 211.600 C 222.180 211.600,222.000 211.780,222.000 212.000 C 222.000 212.646,223.092 212.458,223.357 211.767 C 223.731 210.792,223.645 209.600,223.200 209.600 C 222.980 209.600,222.800 210.050,222.800 210.600 M178.400 212.766 C 178.400 212.968,178.940 213.372,179.600 213.664 C 180.260 213.956,180.800 214.331,180.800 214.498 C 180.800 214.664,181.070 214.800,181.400 214.800 C 181.730 214.800,182.000 214.697,182.000 214.571 C 182.000 214.102,180.835 213.200,180.229 213.200 C 179.883 213.200,179.600 213.020,179.600 212.800 C 179.600 212.580,179.330 212.400,179.000 212.400 C 178.670 212.400,178.400 212.565,178.400 212.766 M220.400 212.800 C 220.400 213.020,220.117 213.200,219.771 213.200 C 219.165 213.200,218.000 214.102,218.000 214.571 C 218.000 214.697,218.270 214.800,218.600 214.800 C 218.930 214.800,219.200 214.664,219.200 214.498 C 219.200 214.331,219.740 213.956,220.400 213.664 C 221.671 213.101,222.004 212.400,221.000 212.400 C 220.670 212.400,220.400 212.580,220.400 212.800 M165.200 214.800 C 165.200 215.240,165.020 215.600,164.800 215.600 C 164.580 215.600,164.400 215.960,164.400 216.400 C 164.400 216.840,164.220 217.200,164.000 217.200 C 163.780 217.200,163.600 217.562,163.600 218.005 C 163.600 218.448,163.380 219.164,163.110 219.595 C 162.723 220.215,162.723 220.483,163.110 220.870 C 163.497 221.257,163.600 221.132,163.600 220.280 C 163.600 219.686,163.780 219.200,164.000 219.200 C 164.220 219.200,164.400 218.851,164.400 218.424 C 164.400 217.997,164.580 217.536,164.800 217.400 C 165.020 217.264,165.200 216.803,165.200 216.376 C 165.200 215.949,165.380 215.600,165.600 215.600 C 165.820 215.600,166.000 215.240,166.000 214.800 C 166.000 214.360,165.820 214.000,165.600 214.000 C 165.380 214.000,165.200 214.360,165.200 214.800 M233.843 214.633 C 233.500 215.527,233.527 215.600,234.200 215.600 C 234.533 215.600,234.800 215.244,234.800 214.800 C 234.800 213.846,234.186 213.739,233.843 214.633 M182.400 215.200 C 182.400 215.420,182.670 215.600,183.000 215.600 C 183.330 215.600,183.600 215.780,183.600 216.000 C 183.600 216.220,183.960 216.400,184.400 216.400 C 184.933 216.400,185.200 216.133,185.200 215.600 C 185.200 214.711,184.596 214.523,184.233 215.300 C 184.047 215.700,183.953 215.700,183.767 215.300 C 183.489 214.706,182.400 214.626,182.400 215.200 M214.800 215.600 C 214.800 216.133,215.067 216.400,215.600 216.400 C 216.040 216.400,216.400 216.220,216.400 216.000 C 216.400 215.780,216.670 215.600,217.000 215.600 C 217.330 215.600,217.600 215.420,217.600 215.200 C 217.600 214.626,216.511 214.706,216.233 215.300 C 216.047 215.700,215.953 215.700,215.767 215.300 C 215.404 214.523,214.800 214.711,214.800 215.600 M232.000 215.925 C 232.000 216.104,231.370 216.498,230.600 216.800 C 229.830 217.102,229.200 217.496,229.200 217.675 C 229.200 217.854,228.930 218.000,228.600 218.000 C 228.270 218.000,228.000 218.180,228.000 218.400 C 228.000 218.620,227.640 218.800,227.200 218.800 C 226.760 218.800,226.400 218.980,226.400 219.200 C 226.400 219.420,226.130 219.600,225.800 219.600 C 225.470 219.600,225.200 219.780,225.200 220.000 C 225.200 220.220,224.930 220.400,224.600 220.400 C 224.270 220.400,224.000 220.580,224.000 220.800 C 224.000 221.020,224.270 221.200,224.600 221.200 C 224.930 221.200,225.200 221.020,225.200 220.800 C 225.200 220.580,225.560 220.400,226.000 220.400 C 226.440 220.400,226.800 220.220,226.800 220.000 C 226.800 219.780,227.036 219.600,227.325 219.600 C 227.613 219.600,228.236 219.240,228.708 218.800 C 229.180 218.360,229.844 218.000,230.183 218.000 C 230.522 218.000,230.800 217.820,230.800 217.600 C 230.800 217.380,231.083 217.200,231.429 217.200 C 232.035 217.200,233.200 216.298,233.200 215.829 C 233.200 215.703,232.930 215.600,232.600 215.600 C 232.270 215.600,232.000 215.746,232.000 215.925 M193.200 216.776 C 193.200 217.203,193.020 217.664,192.800 217.800 C 192.580 217.936,192.400 218.397,192.400 218.824 C 192.400 219.251,192.220 219.600,192.000 219.600 C 191.253 219.600,191.596 220.874,192.400 221.084 C 192.840 221.199,193.200 221.419,193.200 221.572 C 193.200 221.725,193.830 222.098,194.600 222.400 C 195.370 222.702,196.000 223.096,196.000 223.275 C 196.000 223.454,196.270 223.600,196.600 223.600 C 196.930 223.600,197.201 223.735,197.203 223.900 C 197.207 224.288,199.169 225.200,200.000 225.200 C 200.831 225.200,202.793 224.288,202.797 223.900 C 202.799 223.735,203.070 223.600,203.400 223.600 C 203.730 223.600,204.000 223.420,204.000 223.200 C 204.000 222.980,203.730 222.800,203.400 222.800 C 203.070 222.800,202.800 222.980,202.800 223.200 C 202.800 223.420,202.440 223.600,202.000 223.600 C 201.560 223.600,201.200 223.780,201.200 224.000 C 201.200 224.220,200.660 224.400,200.000 224.400 C 199.340 224.400,198.800 224.220,198.800 224.000 C 198.800 223.780,198.522 223.600,198.183 223.600 C 197.844 223.600,197.180 223.240,196.708 222.800 C 196.236 222.360,195.613 222.000,195.325 222.000 C 195.036 222.000,194.800 221.820,194.800 221.600 C 194.800 221.380,194.517 221.200,194.171 221.200 C 193.295 221.200,192.043 219.919,192.704 219.699 C 192.977 219.608,193.200 219.188,193.200 218.767 C 193.200 218.345,193.380 218.000,193.600 218.000 C 193.820 218.000,194.000 217.550,194.000 217.000 C 194.000 216.450,193.820 216.000,193.600 216.000 C 193.380 216.000,193.200 216.349,193.200 216.776 M234.800 218.400 C 234.800 218.620,234.440 218.800,234.000 218.800 C 233.560 218.800,233.200 218.980,233.200 219.200 C 233.200 219.420,232.840 219.600,232.400 219.600 C 231.960 219.600,231.600 219.738,231.600 219.906 C 231.600 220.074,230.880 220.523,230.000 220.904 C 228.451 221.576,227.481 224.400,228.800 224.400 C 229.020 224.400,229.200 224.760,229.200 225.200 C 229.200 225.640,229.380 226.000,229.600 226.000 C 229.820 226.000,230.000 225.640,230.000 225.200 C 230.000 224.760,229.820 224.400,229.600 224.400 C 229.380 224.400,229.200 223.990,229.200 223.489 C 229.200 222.499,230.451 221.200,231.405 221.200 C 231.732 221.200,232.000 221.062,232.000 220.894 C 232.000 220.523,234.969 219.200,235.803 219.200 C 236.173 219.200,236.400 219.580,236.400 220.200 C 236.400 220.750,236.580 221.200,236.800 221.200 C 237.020 221.200,237.200 221.549,237.200 221.976 C 237.200 222.403,237.380 222.864,237.600 223.000 C 237.820 223.136,238.000 223.597,238.000 224.024 C 238.000 224.451,238.180 224.800,238.400 224.800 C 238.620 224.800,238.800 224.350,238.800 223.800 C 238.800 223.250,238.620 222.800,238.400 222.800 C 238.180 222.800,238.000 222.440,238.000 222.000 C 238.000 221.560,237.820 221.200,237.600 221.200 C 237.380 221.200,237.194 220.795,237.187 220.300 C 237.180 219.805,236.935 219.085,236.643 218.700 C 236.072 217.948,234.800 217.741,234.800 218.400 M172.400 219.800 C 172.400 220.350,172.220 220.800,172.000 220.800 C 171.780 220.800,171.600 221.149,171.600 221.576 C 171.600 222.003,171.420 222.464,171.200 222.600 C 170.980 222.736,170.800 223.197,170.800 223.624 C 170.800 224.051,170.620 224.400,170.400 224.400 C 170.180 224.400,170.000 224.850,170.000 225.400 C 170.000 225.950,169.820 226.400,169.600 226.400 C 169.380 226.400,169.200 226.749,169.200 227.176 C 169.200 227.603,169.020 228.064,168.800 228.200 C 168.580 228.336,168.400 228.797,168.400 229.224 C 168.400 229.651,168.220 230.000,168.000 230.000 C 167.780 230.000,167.600 230.360,167.600 230.800 C 167.600 231.240,167.780 231.600,168.000 231.600 C 168.220 231.600,168.400 231.240,168.400 230.800 C 168.400 230.360,168.580 230.000,168.800 230.000 C 169.020 230.000,169.200 229.640,169.200 229.200 C 169.200 228.760,169.380 228.400,169.600 228.400 C 169.820 228.400,170.000 227.961,170.000 227.424 C 170.000 226.887,170.180 226.336,170.400 226.200 C 170.620 226.064,170.800 225.603,170.800 225.176 C 170.800 224.749,170.980 224.400,171.200 224.400 C 171.420 224.400,171.600 224.040,171.600 223.600 C 171.600 223.160,171.780 222.800,172.000 222.800 C 172.220 222.800,172.400 222.476,172.400 222.080 C 172.400 221.684,172.616 221.144,172.880 220.880 C 173.461 220.299,174.800 220.243,174.800 220.800 C 174.800 221.020,175.070 221.200,175.400 221.200 C 175.730 221.200,176.000 221.020,176.000 220.800 C 176.000 220.580,175.730 220.400,175.400 220.400 C 175.070 220.400,174.800 220.220,174.800 220.000 C 174.800 219.780,174.530 219.600,174.200 219.600 C 173.870 219.600,173.600 219.420,173.600 219.200 C 173.600 218.980,173.330 218.800,173.000 218.800 C 172.627 218.800,172.400 219.178,172.400 219.800 M162.000 222.000 C 162.000 222.440,161.820 222.800,161.600 222.800 C 161.380 222.800,161.200 223.250,161.200 223.800 C 161.200 224.350,161.380 224.800,161.600 224.800 C 161.820 224.800,162.000 224.451,162.000 224.024 C 162.000 223.597,162.180 223.136,162.400 223.000 C 162.620 222.864,162.800 222.403,162.800 221.976 C 162.800 221.549,162.620 221.200,162.400 221.200 C 162.180 221.200,162.000 221.560,162.000 222.000 M176.400 221.429 C 176.400 221.898,177.565 222.800,178.171 222.800 C 178.517 222.800,178.800 222.980,178.800 223.200 C 178.800 223.420,179.160 223.600,179.600 223.600 C 180.040 223.600,180.400 223.780,180.400 224.000 C 180.400 224.220,180.636 224.400,180.925 224.400 C 181.213 224.400,181.836 224.760,182.308 225.200 C 182.780 225.640,183.444 226.000,183.783 226.000 C 184.122 226.000,184.400 226.180,184.400 226.400 C 184.400 226.620,184.670 226.800,185.000 226.800 C 185.330 226.800,185.600 226.620,185.600 226.400 C 185.600 226.180,185.330 226.000,185.000 226.000 C 184.670 226.000,184.400 225.864,184.400 225.698 C 184.400 225.531,183.815 225.141,183.100 224.830 C 182.385 224.519,181.710 224.160,181.600 224.032 C 181.267 223.646,179.047 222.366,178.300 222.129 C 177.915 222.007,177.600 221.748,177.600 221.553 C 177.600 221.359,177.330 221.200,177.000 221.200 C 176.670 221.200,176.400 221.303,176.400 221.429 M222.400 221.502 C 222.400 221.669,221.860 222.044,221.200 222.336 C 219.929 222.899,219.596 223.600,220.600 223.600 C 220.930 223.600,221.200 223.420,221.200 223.200 C 221.200 222.980,221.483 222.800,221.829 222.800 C 222.435 222.800,223.600 221.898,223.600 221.429 C 223.600 221.303,223.330 221.200,223.000 221.200 C 222.670 221.200,222.400 221.336,222.400 221.502 M204.800 223.371 C 204.800 223.686,205.070 224.213,205.400 224.543 C 205.730 224.873,206.000 225.426,206.000 225.771 C 206.000 226.117,206.180 226.400,206.400 226.400 C 206.620 226.400,206.800 225.950,206.800 225.400 C 206.800 224.850,206.620 224.400,206.400 224.400 C 206.180 224.400,206.000 224.040,206.000 223.600 C 206.000 223.156,205.733 222.800,205.400 222.800 C 205.070 222.800,204.800 223.057,204.800 223.371 M218.800 224.600 C 218.800 225.150,218.980 225.600,219.200 225.600 C 219.420 225.600,219.600 225.150,219.600 224.600 C 219.600 224.050,219.420 223.600,219.200 223.600 C 218.980 223.600,218.800 224.050,218.800 224.600 M160.400 225.800 C 160.400 226.130,160.580 226.400,160.800 226.400 C 161.020 226.400,161.200 226.130,161.200 225.800 C 161.200 225.470,161.020 225.200,160.800 225.200 C 160.580 225.200,160.400 225.470,160.400 225.800 M238.800 225.800 C 238.800 226.130,238.980 226.400,239.200 226.400 C 239.420 226.400,239.600 226.130,239.600 225.800 C 239.600 225.470,239.420 225.200,239.200 225.200 C 238.980 225.200,238.800 225.470,238.800 225.800 M219.600 226.600 C 219.600 226.930,219.780 227.200,220.000 227.200 C 220.220 227.200,220.400 226.930,220.400 226.600 C 220.400 226.270,220.220 226.000,220.000 226.000 C 219.780 226.000,219.600 226.270,219.600 226.600 M230.000 227.400 C 230.000 227.950,230.180 228.400,230.400 228.400 C 230.620 228.400,230.800 228.760,230.800 229.200 C 230.800 229.640,230.980 230.000,231.200 230.000 C 231.420 230.000,231.600 230.360,231.600 230.800 C 231.600 231.240,231.780 231.600,232.000 231.600 C 232.220 231.600,232.400 231.240,232.400 230.800 C 232.400 230.360,232.220 230.000,232.000 230.000 C 231.780 230.000,231.600 229.651,231.600 229.224 C 231.600 228.797,231.420 228.336,231.200 228.200 C 230.980 228.064,230.800 227.603,230.800 227.176 C 230.800 226.749,230.620 226.400,230.400 226.400 C 230.180 226.400,230.000 226.850,230.000 227.400 M159.600 227.600 C 159.600 228.040,159.420 228.400,159.200 228.400 C 158.980 228.400,158.800 228.749,158.800 229.176 C 158.800 229.603,158.620 230.064,158.400 230.200 C 158.180 230.336,158.000 230.797,158.000 231.224 C 158.000 231.651,158.180 232.000,158.400 232.000 C 158.620 232.000,158.800 231.640,158.800 231.200 C 158.800 230.760,158.980 230.400,159.200 230.400 C 159.420 230.400,159.600 230.051,159.600 229.624 C 159.600 229.197,159.780 228.736,160.000 228.600 C 160.220 228.464,160.400 228.003,160.400 227.576 C 160.400 227.149,160.220 226.800,160.000 226.800 C 159.780 226.800,159.600 227.160,159.600 227.600 M186.000 227.029 C 186.000 227.498,187.165 228.400,187.771 228.400 C 188.117 228.400,188.400 228.580,188.400 228.800 C 188.400 229.020,188.670 229.200,189.000 229.200 C 190.004 229.200,189.671 228.499,188.400 227.936 C 187.740 227.644,187.200 227.269,187.200 227.102 C 187.200 226.936,186.930 226.800,186.600 226.800 C 186.270 226.800,186.000 226.903,186.000 227.029 M206.800 227.520 C 206.800 227.916,206.998 228.438,207.240 228.680 C 207.927 229.367,207.281 230.697,205.981 231.273 C 204.714 231.833,204.422 232.400,205.400 232.400 C 205.730 232.400,206.000 232.220,206.000 232.000 C 206.000 231.780,206.283 231.600,206.629 231.600 C 206.974 231.600,207.514 231.343,207.829 231.029 C 208.478 230.379,208.607 228.400,208.000 228.400 C 207.780 228.400,207.600 228.040,207.600 227.600 C 207.600 227.160,207.420 226.800,207.200 226.800 C 206.980 226.800,206.800 227.124,206.800 227.520 M239.600 227.576 C 239.600 228.003,239.780 228.464,240.000 228.600 C 240.220 228.736,240.400 229.197,240.400 229.624 C 240.400 230.051,240.580 230.400,240.800 230.400 C 241.020 230.400,241.200 230.760,241.200 231.200 C 241.200 231.640,241.380 232.000,241.600 232.000 C 241.820 232.000,242.000 231.651,242.000 231.224 C 242.000 230.797,241.820 230.336,241.600 230.200 C 241.380 230.064,241.200 229.603,241.200 229.176 C 241.200 228.749,241.020 228.400,240.800 228.400 C 240.580 228.400,240.400 228.040,240.400 227.600 C 240.400 227.160,240.220 226.800,240.000 226.800 C 239.780 226.800,239.600 227.149,239.600 227.576 M178.800 228.400 C 178.800 228.840,178.620 229.200,178.400 229.200 C 178.180 229.200,178.000 229.650,178.000 230.200 C 178.000 230.750,178.180 231.200,178.400 231.200 C 178.620 231.200,178.800 230.765,178.800 230.234 C 178.800 229.544,179.144 229.115,180.000 228.736 C 180.660 228.444,181.200 228.069,181.200 227.902 C 181.200 227.736,180.660 227.600,180.000 227.600 C 179.067 227.600,178.800 227.778,178.800 228.400 M220.400 228.400 C 220.400 228.840,220.580 229.200,220.800 229.200 C 221.020 229.200,221.200 229.650,221.200 230.200 C 221.200 230.750,221.380 231.200,221.600 231.200 C 221.820 231.200,222.000 231.560,222.000 232.000 C 222.000 232.440,222.180 232.800,222.400 232.800 C 222.620 232.800,222.800 232.451,222.800 232.024 C 222.800 231.597,222.620 231.136,222.400 231.000 C 222.180 230.864,222.000 230.403,222.000 229.976 C 222.000 229.549,221.820 229.200,221.600 229.200 C 221.380 229.200,221.200 228.840,221.200 228.400 C 221.200 227.960,221.020 227.600,220.800 227.600 C 220.580 227.600,220.400 227.960,220.400 228.400 M181.600 228.800 C 181.600 229.020,181.870 229.200,182.200 229.200 C 182.530 229.200,182.800 229.380,182.800 229.600 C 182.800 229.820,183.070 230.000,183.400 230.000 C 183.730 230.000,184.000 230.180,184.000 230.400 C 184.000 230.620,184.270 230.800,184.600 230.800 C 184.930 230.800,185.200 230.697,185.200 230.571 C 185.200 230.102,184.035 229.200,183.429 229.200 C 183.083 229.200,182.800 229.020,182.800 228.800 C 182.800 228.580,182.530 228.400,182.200 228.400 C 181.870 228.400,181.600 228.580,181.600 228.800 M190.000 229.429 C 190.000 229.898,191.165 230.800,191.771 230.800 C 192.117 230.800,192.400 230.980,192.400 231.200 C 192.400 231.420,192.678 231.600,193.017 231.600 C 193.356 231.600,194.020 231.960,194.492 232.400 C 194.964 232.840,195.587 233.200,195.875 233.200 C 196.164 233.200,196.400 233.380,196.400 233.600 C 196.400 233.820,196.678 234.000,197.017 234.000 C 197.356 234.000,198.020 234.360,198.492 234.800 C 198.964 235.240,199.643 235.600,200.000 235.600 C 200.357 235.600,201.036 235.240,201.508 234.800 C 201.980 234.360,202.567 234.000,202.812 234.000 C 203.275 234.000,204.400 233.028,204.400 232.629 C 204.400 232.503,204.130 232.400,203.800 232.400 C 203.470 232.400,203.200 232.580,203.200 232.800 C 203.200 233.020,202.930 233.200,202.600 233.200 C 202.270 233.200,202.000 233.380,202.000 233.600 C 202.000 233.820,201.730 234.000,201.400 234.000 C 201.070 234.000,200.800 234.180,200.800 234.400 C 200.800 235.072,199.616 234.846,198.708 234.000 C 198.236 233.560,197.613 233.200,197.325 233.200 C 197.036 233.200,196.800 233.020,196.800 232.800 C 196.800 232.580,196.440 232.400,196.000 232.400 C 195.560 232.400,195.200 232.220,195.200 232.000 C 195.200 231.780,194.930 231.600,194.600 231.600 C 194.270 231.600,194.000 231.454,194.000 231.275 C 194.000 231.096,193.370 230.702,192.600 230.400 C 191.830 230.098,191.200 229.704,191.200 229.525 C 191.200 229.346,190.930 229.200,190.600 229.200 C 190.270 229.200,190.000 229.303,190.000 229.429 M185.692 231.275 C 185.939 232.017,186.800 232.140,186.800 231.433 C 186.800 231.085,186.515 230.800,186.167 230.800 C 185.818 230.800,185.605 231.014,185.692 231.275 M177.200 232.200 C 177.200 232.530,177.380 232.800,177.600 232.800 C 177.820 232.800,178.000 232.530,178.000 232.200 C 178.000 231.870,177.820 231.600,177.600 231.600 C 177.380 231.600,177.200 231.870,177.200 232.200 M166.800 232.776 C 166.800 233.203,166.620 233.664,166.400 233.800 C 166.180 233.936,166.000 234.397,166.000 234.824 C 166.000 235.251,165.820 235.600,165.600 235.600 C 165.380 235.600,165.200 235.960,165.200 236.400 C 165.200 236.840,165.380 237.200,165.600 237.200 C 165.820 237.200,166.000 236.840,166.000 236.400 C 166.000 235.960,166.180 235.600,166.400 235.600 C 166.620 235.600,166.800 235.240,166.800 234.800 C 166.800 234.360,166.980 234.000,167.200 234.000 C 167.420 234.000,167.600 233.550,167.600 233.000 C 167.600 232.450,167.420 232.000,167.200 232.000 C 166.980 232.000,166.800 232.349,166.800 232.776 M232.400 233.000 C 232.400 233.550,232.580 234.000,232.800 234.000 C 233.020 234.000,233.200 234.360,233.200 234.800 C 233.200 235.240,233.380 235.600,233.600 235.600 C 233.820 235.600,234.000 235.960,234.000 236.400 C 234.000 236.840,234.180 237.200,234.400 237.200 C 234.620 237.200,234.800 236.840,234.800 236.400 C 234.800 235.960,234.620 235.600,234.400 235.600 C 234.180 235.600,234.000 235.251,234.000 234.824 C 234.000 234.397,233.820 233.936,233.600 233.800 C 233.380 233.664,233.200 233.203,233.200 232.776 C 233.200 232.349,233.020 232.000,232.800 232.000 C 232.580 232.000,232.400 232.450,232.400 233.000 M157.200 233.200 C 157.200 233.640,157.020 234.000,156.800 234.000 C 156.580 234.000,156.400 234.450,156.400 235.000 C 156.400 235.550,156.580 236.000,156.800 236.000 C 157.020 236.000,157.200 235.550,157.200 235.000 C 157.200 234.450,157.380 234.000,157.600 234.000 C 157.820 234.000,158.000 233.640,158.000 233.200 C 158.000 232.760,157.820 232.400,157.600 232.400 C 157.380 232.400,157.200 232.760,157.200 233.200 M242.000 233.176 C 242.000 233.603,242.180 234.064,242.400 234.200 C 242.620 234.336,242.800 234.797,242.800 235.224 C 242.800 235.651,242.980 236.000,243.200 236.000 C 243.420 236.000,243.600 236.360,243.600 236.800 C 243.600 237.240,243.780 237.600,244.000 237.600 C 244.220 237.600,244.400 237.251,244.400 236.824 C 244.400 236.397,244.220 235.936,244.000 235.800 C 243.780 235.664,243.600 235.203,243.600 234.776 C 243.600 234.349,243.420 234.000,243.200 234.000 C 242.980 234.000,242.800 233.640,242.800 233.200 C 242.800 232.760,242.620 232.400,242.400 232.400 C 242.180 232.400,242.000 232.749,242.000 233.176 M186.000 233.600 C 186.000 234.040,185.820 234.400,185.600 234.400 C 185.380 234.400,185.200 234.850,185.200 235.400 C 185.200 235.950,185.020 236.400,184.800 236.400 C 184.580 236.400,184.400 236.760,184.400 237.200 C 184.400 237.640,184.580 238.000,184.800 238.000 C 185.020 238.000,185.200 237.640,185.200 237.200 C 185.200 236.760,185.380 236.400,185.600 236.400 C 185.820 236.400,186.000 236.040,186.000 235.600 C 186.000 235.160,186.180 234.800,186.400 234.800 C 186.620 234.800,186.800 234.350,186.800 233.800 C 186.800 233.250,186.620 232.800,186.400 232.800 C 186.180 232.800,186.000 233.160,186.000 233.600 M213.200 233.800 C 213.200 234.350,213.380 234.800,213.600 234.800 C 213.820 234.800,214.000 235.160,214.000 235.600 C 214.000 236.040,214.180 236.400,214.400 236.400 C 214.620 236.400,214.800 236.760,214.800 237.200 C 214.800 237.640,214.980 238.000,215.200 238.000 C 215.420 238.000,215.600 237.640,215.600 237.200 C 215.600 236.760,215.420 236.400,215.200 236.400 C 214.980 236.400,214.800 236.051,214.800 235.624 C 214.800 235.197,214.620 234.736,214.400 234.600 C 214.180 234.464,214.000 234.003,214.000 233.576 C 214.000 233.149,213.820 232.800,213.600 232.800 C 213.380 232.800,213.200 233.250,213.200 233.800 M176.400 234.000 C 176.400 234.440,176.220 234.800,176.000 234.800 C 175.780 234.800,175.600 235.250,175.600 235.800 C 175.600 236.350,175.780 236.800,176.000 236.800 C 176.220 236.800,176.400 236.350,176.400 235.800 C 176.400 235.250,176.580 234.800,176.800 234.800 C 177.020 234.800,177.200 234.440,177.200 234.000 C 177.200 233.560,177.020 233.200,176.800 233.200 C 176.580 233.200,176.400 233.560,176.400 234.000 M222.800 233.976 C 222.800 234.403,222.980 234.864,223.200 235.000 C 223.420 235.136,223.600 235.597,223.600 236.024 C 223.600 236.451,223.780 236.800,224.000 236.800 C 224.220 236.800,224.400 237.160,224.400 237.600 C 224.400 238.040,224.580 238.400,224.800 238.400 C 225.020 238.400,225.200 238.051,225.200 237.624 C 225.200 237.197,225.020 236.736,224.800 236.600 C 224.580 236.464,224.400 236.003,224.400 235.576 C 224.400 235.149,224.220 234.800,224.000 234.800 C 223.780 234.800,223.600 234.440,223.600 234.000 C 223.600 233.560,223.420 233.200,223.200 233.200 C 222.980 233.200,222.800 233.549,222.800 233.976 M155.600 237.000 C 155.600 237.330,155.780 237.600,156.000 237.600 C 156.220 237.600,156.400 237.330,156.400 237.000 C 156.400 236.670,156.220 236.400,156.000 236.400 C 155.780 236.400,155.600 236.670,155.600 237.000 M174.800 237.800 C 174.800 238.130,174.980 238.400,175.200 238.400 C 175.420 238.400,175.600 238.130,175.600 237.800 C 175.600 237.470,175.420 237.200,175.200 237.200 C 174.980 237.200,174.800 237.470,174.800 237.800 M164.400 238.400 C 164.400 238.840,164.220 239.200,164.000 239.200 C 163.780 239.200,163.600 239.470,163.600 239.800 C 163.600 240.708,174.313 240.691,174.662 239.783 C 174.792 239.443,174.762 239.038,174.595 238.883 C 174.427 238.727,174.210 238.825,174.112 239.100 C 173.984 239.459,172.698 239.600,169.567 239.600 L 165.200 239.600 165.200 238.600 C 165.200 238.050,165.020 237.600,164.800 237.600 C 164.580 237.600,164.400 237.960,164.400 238.400 M234.800 238.600 L 234.800 239.600 230.433 239.600 C 227.302 239.600,226.016 239.459,225.888 239.100 C 225.790 238.825,225.573 238.727,225.405 238.883 C 225.238 239.038,225.208 239.443,225.338 239.783 C 225.687 240.691,236.400 240.708,236.400 239.800 C 236.400 239.470,236.220 239.200,236.000 239.200 C 235.780 239.200,235.600 238.840,235.600 238.400 C 235.600 237.960,235.420 237.600,235.200 237.600 C 234.980 237.600,234.800 238.050,234.800 238.600 M154.800 238.800 C 154.800 239.240,154.620 239.600,154.400 239.600 C 154.180 239.600,154.000 239.949,154.000 240.376 C 154.000 240.803,153.820 241.264,153.600 241.400 C 153.380 241.536,153.200 241.997,153.200 242.424 C 153.200 242.851,153.380 243.200,153.600 243.200 C 153.820 243.200,154.000 242.840,154.000 242.400 C 154.000 241.960,154.180 241.600,154.400 241.600 C 154.620 241.600,154.800 241.150,154.800 240.600 C 154.800 240.050,154.980 239.600,155.200 239.600 C 155.420 239.600,155.600 239.240,155.600 238.800 C 155.600 238.360,155.420 238.000,155.200 238.000 C 154.980 238.000,154.800 238.360,154.800 238.800 M244.400 238.776 C 244.400 239.203,244.580 239.664,244.800 239.800 C 245.020 239.936,245.200 240.397,245.200 240.824 C 245.200 241.251,245.380 241.600,245.600 241.600 C 245.820 241.600,246.000 241.960,246.000 242.400 C 246.000 242.840,246.180 243.200,246.400 243.200 C 246.620 243.200,246.800 242.851,246.800 242.424 C 246.800 241.997,246.620 241.536,246.400 241.400 C 246.180 241.264,246.000 240.803,246.000 240.376 C 246.000 239.949,245.820 239.600,245.600 239.600 C 245.380 239.600,245.200 239.240,245.200 238.800 C 245.200 238.360,245.020 238.000,244.800 238.000 C 244.580 238.000,244.400 238.349,244.400 238.776 M183.600 239.176 C 183.600 239.603,183.420 240.064,183.200 240.200 C 182.980 240.336,182.800 240.797,182.800 241.224 C 182.800 241.651,182.620 242.000,182.400 242.000 C 182.180 242.000,182.000 242.450,182.000 243.000 C 182.000 243.550,181.820 244.000,181.600 244.000 C 181.380 244.000,181.200 244.242,181.200 244.539 C 181.200 245.341,179.998 247.600,179.571 247.600 C 179.367 247.600,179.200 247.780,179.200 248.000 C 179.200 248.220,179.393 248.400,179.629 248.400 C 180.266 248.400,181.200 247.347,181.200 246.629 C 181.200 246.283,181.380 246.000,181.600 246.000 C 181.820 246.000,182.000 245.561,182.000 245.024 C 182.000 244.487,182.180 243.936,182.400 243.800 C 182.620 243.664,182.800 243.203,182.800 242.776 C 182.800 242.349,182.980 242.000,183.200 242.000 C 183.420 242.000,183.600 241.640,183.600 241.200 C 183.600 240.760,183.780 240.400,184.000 240.400 C 184.220 240.400,184.400 239.950,184.400 239.400 C 184.400 238.850,184.220 238.400,184.000 238.400 C 183.780 238.400,183.600 238.749,183.600 239.176 M215.600 239.400 C 215.600 239.950,215.780 240.400,216.000 240.400 C 216.220 240.400,216.400 240.760,216.400 241.200 C 216.400 241.640,216.580 242.000,216.800 242.000 C 217.020 242.000,217.200 242.360,217.200 242.800 C 217.200 243.240,217.380 243.600,217.600 243.600 C 217.820 243.600,218.000 243.240,218.000 242.800 C 218.000 242.360,217.820 242.000,217.600 242.000 C 217.380 242.000,217.200 241.651,217.200 241.224 C 217.200 240.797,217.020 240.336,216.800 240.200 C 216.580 240.064,216.400 239.603,216.400 239.176 C 216.400 238.749,216.220 238.400,216.000 238.400 C 215.780 238.400,215.600 238.850,215.600 239.400 M152.400 244.400 C 152.400 244.840,152.220 245.200,152.000 245.200 C 151.780 245.200,151.600 245.920,151.600 246.800 C 151.600 247.961,151.766 248.400,152.205 248.400 C 152.686 248.400,152.757 248.074,152.554 246.800 C 152.382 245.728,152.447 245.200,152.749 245.200 C 152.997 245.200,153.200 244.840,153.200 244.400 C 153.200 243.960,153.020 243.600,152.800 243.600 C 152.580 243.600,152.400 243.960,152.400 244.400 M246.800 244.400 C 246.800 244.840,247.003 245.200,247.251 245.200 C 247.553 245.200,247.618 245.728,247.446 246.800 C 247.243 248.074,247.314 248.400,247.795 248.400 C 248.234 248.400,248.400 247.961,248.400 246.800 C 248.400 245.920,248.220 245.200,248.000 245.200 C 247.780 245.200,247.600 244.840,247.600 244.400 C 247.600 243.960,247.420 243.600,247.200 243.600 C 246.980 243.600,246.800 243.960,246.800 244.400 M218.000 245.000 C 218.000 245.550,218.180 246.000,218.400 246.000 C 218.620 246.000,218.800 246.283,218.800 246.629 C 218.800 247.347,219.734 248.400,220.371 248.400 C 221.012 248.400,220.888 247.720,220.200 247.455 C 219.870 247.329,219.600 246.859,219.600 246.413 C 219.600 245.966,219.420 245.600,219.200 245.600 C 218.980 245.600,218.800 245.240,218.800 244.800 C 218.800 244.360,218.620 244.000,218.400 244.000 C 218.180 244.000,218.000 244.450,218.000 245.000 " stroke="none" fill="#93a0ae" fill-rule="evenodd"></path><path id="path2" d="M193.600 152.000 C 193.600 152.249,195.971 152.402,199.900 152.406 C 206.263 152.412,206.895 152.514,207.308 153.600 C 207.509 154.126,207.541 154.125,207.568 153.589 C 207.653 151.950,206.284 151.600,199.795 151.600 C 195.932 151.600,193.600 151.751,193.600 152.000 M185.246 169.876 C 185.221 170.358,185.020 170.864,184.800 171.000 C 184.580 171.136,184.401 171.552,184.402 171.924 C 184.404 172.344,184.637 172.156,185.017 171.425 C 185.354 170.779,185.554 169.969,185.461 169.625 C 185.355 169.231,185.276 169.324,185.246 169.876 M214.446 169.654 C 214.421 170.014,214.669 170.824,214.998 171.454 C 215.326 172.084,215.596 172.321,215.598 171.980 C 215.599 171.639,215.437 171.189,215.239 170.980 C 215.040 170.771,214.791 170.240,214.685 169.800 C 214.550 169.237,214.479 169.193,214.446 169.654 M183.300 174.223 C 183.025 174.522,182.801 175.089,182.802 175.483 C 182.804 175.979,182.991 175.843,183.410 175.040 C 184.089 173.737,184.046 173.414,183.300 174.223 M216.000 173.726 C 216.000 173.826,216.269 174.424,216.598 175.054 C 217.024 175.873,217.196 175.992,217.198 175.471 C 217.199 175.071,216.930 174.473,216.600 174.143 C 216.270 173.813,216.000 173.625,216.000 173.726 M210.000 179.152 C 210.000 179.430,210.270 179.927,210.600 180.257 C 211.367 181.024,211.358 180.442,210.587 179.424 C 210.258 178.988,210.000 178.869,210.000 179.152 M218.400 179.326 C 218.400 179.426,218.669 180.024,218.998 180.654 C 219.424 181.473,219.596 181.592,219.598 181.071 C 219.599 180.671,219.330 180.073,219.000 179.743 C 218.670 179.413,218.400 179.225,218.400 179.326 M199.300 183.076 C 199.685 183.176,200.315 183.176,200.700 183.076 C 201.085 182.975,200.770 182.893,200.000 182.893 C 199.230 182.893,198.915 182.975,199.300 183.076 M197.685 186.413 C 197.418 186.840,197.201 187.417,197.202 187.695 C 197.204 187.973,197.477 187.678,197.810 187.040 C 198.503 185.711,198.411 185.250,197.685 186.413 M204.054 190.854 C 204.025 191.214,204.269 192.024,204.598 192.654 C 205.145 193.704,205.195 193.725,205.198 192.900 C 205.199 192.405,205.033 192.000,204.828 192.000 C 204.623 192.000,204.378 191.595,204.282 191.100 C 204.186 190.600,204.085 190.491,204.054 190.854 M199.350 201.387 C 199.226 201.710,199.217 202.205,199.331 202.487 C 199.444 202.769,199.551 202.576,199.568 202.057 C 199.591 201.376,199.772 201.180,200.221 201.353 C 200.577 201.489,200.737 201.422,200.597 201.195 C 200.239 200.616,199.608 200.713,199.350 201.387 M219.602 201.329 C 219.601 201.729,219.870 202.327,220.200 202.657 C 220.957 203.414,220.957 203.193,220.202 201.746 C 219.776 200.927,219.604 200.808,219.602 201.329 M197.266 206.397 C 196.973 207.058,196.824 207.825,196.935 208.100 C 197.046 208.375,197.151 208.231,197.168 207.780 C 197.186 207.329,197.400 206.760,197.645 206.515 C 197.890 206.270,198.024 205.873,197.944 205.632 C 197.864 205.391,197.558 205.735,197.266 206.397 M202.002 205.676 C 202.001 206.048,202.180 206.464,202.400 206.600 C 202.620 206.736,202.821 207.242,202.846 207.724 C 202.876 208.276,202.955 208.369,203.061 207.975 C 203.154 207.631,202.954 206.821,202.617 206.175 C 202.237 205.444,202.004 205.256,202.002 205.676 M169.000 208.000 C 170.093 208.469,170.400 208.469,170.400 208.000 C 170.400 207.780,169.905 207.613,169.300 207.628 C 168.325 207.653,168.291 207.695,169.000 208.000 M167.646 210.676 C 167.621 211.158,167.420 211.664,167.200 211.800 C 166.980 211.936,166.801 212.352,166.802 212.724 C 166.804 213.144,167.037 212.956,167.417 212.225 C 167.754 211.579,167.954 210.769,167.861 210.425 C 167.755 210.031,167.676 210.124,167.646 210.676 M232.046 210.454 C 232.021 210.814,232.269 211.624,232.598 212.254 C 232.926 212.884,233.196 213.121,233.198 212.780 C 233.199 212.439,233.037 211.989,232.839 211.780 C 232.640 211.571,232.391 211.040,232.285 210.600 C 232.150 210.037,232.079 209.993,232.046 210.454 M186.846 211.420 C 186.821 211.871,186.621 212.457,186.401 212.721 C 186.182 212.986,186.290 212.953,186.640 212.649 C 186.990 212.344,187.190 211.758,187.085 211.347 C 186.912 210.674,186.888 210.681,186.846 211.420 M194.866 211.997 C 194.573 212.658,194.424 213.425,194.535 213.700 C 194.646 213.975,194.751 213.831,194.768 213.380 C 194.786 212.929,195.000 212.360,195.245 212.115 C 195.490 211.870,195.624 211.473,195.544 211.232 C 195.464 210.991,195.158 211.335,194.866 211.997 M204.402 211.276 C 204.401 211.648,204.580 212.064,204.800 212.200 C 205.020 212.336,205.221 212.842,205.246 213.324 C 205.276 213.876,205.355 213.969,205.461 213.575 C 205.554 213.231,205.354 212.421,205.017 211.775 C 204.637 211.044,204.404 210.856,204.402 211.276 M212.846 211.451 C 212.821 211.919,213.115 212.549,213.500 212.851 C 214.109 213.328,214.140 213.322,213.743 212.800 C 213.492 212.470,213.198 211.840,213.089 211.400 C 212.903 210.640,212.890 210.643,212.846 211.451 M209.202 222.476 C 209.201 222.848,209.380 223.264,209.600 223.400 C 209.820 223.536,210.021 224.042,210.046 224.524 C 210.076 225.076,210.155 225.169,210.261 224.775 C 210.354 224.431,210.154 223.621,209.817 222.975 C 209.437 222.244,209.204 222.056,209.202 222.476 M229.354 222.577 C 229.232 222.894,229.203 223.479,229.289 223.877 C 229.387 224.328,229.524 224.112,229.654 223.300 C 229.871 221.938,229.730 221.596,229.354 222.577 M238.400 225.726 C 238.400 225.826,238.669 226.424,238.998 227.054 C 239.424 227.873,239.596 227.992,239.598 227.471 C 239.599 227.071,239.330 226.473,239.000 226.143 C 238.670 225.813,238.400 225.625,238.400 225.726 M168.466 227.997 C 168.173 228.658,168.024 229.425,168.135 229.700 C 168.246 229.975,168.351 229.831,168.368 229.380 C 168.386 228.929,168.600 228.360,168.845 228.115 C 169.090 227.870,169.224 227.473,169.144 227.232 C 169.064 226.991,168.758 227.335,168.466 227.997 M158.500 231.823 C 158.225 232.122,158.000 232.594,158.000 232.872 C 158.000 233.150,158.288 232.966,158.641 232.463 C 159.362 231.433,159.265 230.993,158.500 231.823 M240.800 231.326 C 240.800 231.426,241.069 232.024,241.398 232.654 C 241.824 233.473,241.996 233.592,241.998 233.071 C 241.999 232.671,241.730 232.073,241.400 231.743 C 241.070 231.413,240.800 231.225,240.800 231.326 M221.600 232.126 C 221.600 232.226,221.869 232.824,222.198 233.454 C 222.624 234.273,222.796 234.392,222.798 233.871 C 222.799 233.471,222.530 232.873,222.200 232.543 C 221.870 232.213,221.600 232.025,221.600 232.126 M243.200 236.926 C 243.200 237.026,243.469 237.624,243.798 238.254 C 244.224 239.073,244.396 239.192,244.398 238.671 C 244.399 238.271,244.130 237.673,243.800 237.343 C 243.470 237.013,243.200 236.825,243.200 236.926 M182.866 239.997 C 182.573 240.658,182.424 241.425,182.535 241.700 C 182.646 241.975,182.751 241.831,182.768 241.380 C 182.786 240.929,183.000 240.360,183.245 240.115 C 183.490 239.870,183.624 239.473,183.544 239.232 C 183.464 238.991,183.158 239.335,182.866 239.997 M152.400 246.200 C 152.400 246.750,152.469 247.200,152.553 247.200 C 152.638 247.200,152.793 246.750,152.898 246.200 C 153.003 245.650,152.934 245.200,152.745 245.200 C 152.555 245.200,152.400 245.650,152.400 246.200 M247.102 246.200 C 247.207 246.750,247.362 247.200,247.447 247.200 C 247.531 247.200,247.600 246.750,247.600 246.200 C 247.600 245.650,247.445 245.200,247.255 245.200 C 247.066 245.200,246.997 245.650,247.102 246.200 M152.800 248.000 C 152.800 248.259,157.467 248.400,166.000 248.400 C 174.533 248.400,179.200 248.259,179.200 248.000 C 179.200 247.741,174.533 247.600,166.000 247.600 C 157.467 247.600,152.800 247.741,152.800 248.000 M220.800 248.000 C 220.800 248.259,225.467 248.400,234.000 248.400 C 242.533 248.400,247.200 248.259,247.200 248.000 C 247.200 247.741,242.533 247.600,234.000 247.600 C 225.467 247.600,220.800 247.741,220.800 248.000 " stroke="none" fill="#adbcc4" fill-rule="evenodd"></path><path id="path3" d="M232.600 240.400 L 228.600 240.645 232.476 240.723 C 234.717 240.767,236.457 240.631,236.600 240.400 C 236.736 240.180,236.792 240.035,236.724 240.077 C 236.656 240.120,234.800 240.265,232.600 240.400 M166.900 240.696 C 168.165 240.775,170.235 240.775,171.500 240.696 C 172.765 240.616,171.730 240.551,169.200 240.551 C 166.670 240.551,165.635 240.616,166.900 240.696 " stroke="none" fill="#bcc4cc" fill-rule="evenodd"></path><path id="path4" d="M196.700 152.698 C 198.515 152.772,201.485 152.772,203.300 152.698 C 205.115 152.623,203.630 152.563,200.000 152.563 C 196.370 152.563,194.885 152.623,196.700 152.698 M201.988 159.978 C 202.617 161.153,203.192 161.346,202.663 160.204 C 202.408 159.655,202.059 159.205,201.886 159.203 C 201.713 159.201,201.759 159.550,201.988 159.978 M223.845 211.104 C 223.710 211.487,223.490 212.039,223.356 212.331 C 223.155 212.770,223.257 212.771,223.956 212.334 C 224.834 211.787,225.057 211.006,224.445 210.628 C 224.250 210.508,223.980 210.722,223.845 211.104 M232.800 214.429 C 232.800 215.165,232.867 215.190,233.400 214.657 C 233.730 214.327,234.000 213.954,234.000 213.829 C 234.000 213.703,233.730 213.600,233.400 213.600 C 233.060 213.600,232.800 213.959,232.800 214.429 M199.638 225.576 C 199.240 225.822,199.229 225.971,199.592 226.195 C 199.855 226.357,200.250 226.310,200.470 226.090 C 200.991 225.569,200.321 225.155,199.638 225.576 M153.145 247.306 C 153.314 247.474,159.290 247.564,166.426 247.505 L 179.400 247.399 166.120 247.200 C 158.815 247.090,152.977 247.138,153.145 247.306 M233.800 247.200 L 220.600 247.416 233.676 247.508 C 242.063 247.567,246.841 247.457,247.000 247.200 C 247.136 246.980,247.192 246.841,247.124 246.892 C 247.056 246.942,241.060 247.081,233.800 247.200 " stroke="none" fill="#ccd2d9" fill-rule="evenodd"></path></g></svg>