<svg id="svg" version="1.1" xmlns="http://www.w3.org/2000/svg" xmlns:xlink="http://www.w3.org/1999/xlink" width="400" height="400" viewBox="0, 0, 400,400"><g id="svgg"><path id="path0" d="M186.500 25.617 C 182.775 27.789,173.237 33.295,121.167 63.335 C 101.367 74.758,85.099 84.162,85.015 84.231 C 84.932 84.301,87.781 87.277,91.346 90.846 C 94.910 94.414,97.716 97.333,97.580 97.333 C 97.445 97.333,94.491 94.483,91.017 91.000 C 87.543 87.517,84.596 84.667,84.469 84.667 C 84.341 84.667,77.138 88.754,68.463 93.750 L 52.689 102.833 52.678 171.829 L 52.667 240.825 57.579 245.746 C 60.281 248.452,62.386 250.667,62.256 250.667 C 62.127 250.667,59.995 248.642,57.518 246.167 C 55.042 243.692,52.937 241.667,52.841 241.667 C 52.745 241.667,52.668 246.129,52.670 251.583 L 52.674 261.500 56.329 263.583 C 59.996 265.673,60.667 265.945,60.667 265.342 C 60.667 264.711,62.582 263.984,63.398 264.304 C 64.373 264.687,67.536 267.909,67.234 268.211 C 67.109 268.335,66.190 267.664,65.190 266.719 C 64.191 265.773,63.075 265.000,62.710 265.000 C 61.924 265.000,60.840 265.982,61.229 266.342 C 61.534 266.625,99.705 288.667,99.890 288.667 C 99.955 288.667,95.581 284.232,90.171 278.812 C 84.760 273.392,80.334 268.854,80.334 268.729 C 80.335 268.603,85.053 273.225,90.819 279.000 L 101.303 289.500 110.558 294.880 C 118.812 299.678,119.858 300.201,120.229 299.713 C 120.633 299.183,120.732 299.290,120.801 300.329 C 120.829 300.737,148.902 317.154,184.403 337.524 L 189.973 340.720 222.903 321.734 C 241.015 311.292,265.058 297.435,276.333 290.941 C 287.608 284.447,303.692 275.167,312.075 270.317 L 327.317 261.500 327.242 182.179 L 327.167 102.859 321.333 99.488 C 296.011 84.856,270.943 70.380,266.500 67.823 C 263.567 66.135,254.942 61.158,247.333 56.764 C 239.725 52.369,227.575 45.355,220.333 41.176 C 213.092 36.997,203.315 31.348,198.608 28.622 C 193.900 25.897,190.000 23.668,189.941 23.670 C 189.882 23.672,188.333 24.548,186.500 25.617 M103.821 103.321 C 106.927 106.431,109.401 109.028,109.318 109.092 C 109.235 109.157,106.584 106.612,103.427 103.438 C 100.271 100.264,97.797 97.667,97.931 97.667 C 98.065 97.667,100.715 100.211,103.821 103.321 M132.511 101.816 C 134.038 102.455,134.003 102.578,131.647 104.825 C 129.445 106.925,129.302 107.667,131.098 107.667 C 132.511 107.667,133.578 106.583,133.725 105.000 C 133.847 103.684,134.446 103.548,134.603 104.801 C 135.002 107.968,130.570 109.662,128.417 107.166 C 125.999 104.363,129.054 100.372,132.511 101.816 M130.089 102.366 C 128.689 102.884,127.922 104.833,128.659 106.000 C 128.998 106.535,132.333 103.632,132.333 102.801 C 132.333 102.301,130.976 102.037,130.089 102.366 M127.323 107.328 C 128.362 107.884,128.164 108.359,126.001 110.499 C 124.068 112.412,124.026 112.490,124.726 112.865 C 126.321 113.719,128.303 112.380,128.323 110.436 C 128.336 109.078,128.869 108.723,129.098 109.920 C 129.733 113.239,125.663 115.115,123.174 112.651 C 120.368 109.873,123.815 105.450,127.323 107.328 M123.878 108.358 C 123.240 108.860,123.000 109.355,123.000 110.171 C 123.000 111.930,123.595 111.897,125.454 110.034 C 127.610 107.871,126.287 106.463,123.878 108.358 M120.776 112.038 C 120.597 112.932,120.781 113.262,122.350 114.851 C 123.328 115.840,124.020 116.758,123.888 116.890 C 123.756 117.022,122.602 116.092,121.324 114.824 C 119.056 112.574,118.489 111.732,119.500 112.121 C 119.830 112.247,120.000 112.109,120.000 111.712 C 120.000 111.002,120.316 110.617,120.702 110.855 C 120.854 110.949,120.887 111.482,120.776 112.038 M117.794 113.366 C 118.402 112.862,118.889 113.497,118.372 114.120 C 117.832 114.770,121.019 117.812,121.935 117.521 C 122.943 117.201,123.110 117.843,122.134 118.287 C 121.354 118.643,121.143 118.533,119.358 116.830 C 117.660 115.210,117.374 115.050,116.994 115.508 C 116.706 115.855,116.450 115.917,116.228 115.695 C 116.006 115.473,116.040 115.187,116.330 114.838 C 116.695 114.397,116.650 114.192,116.046 113.549 C 115.651 113.128,115.430 112.681,115.556 112.556 C 115.681 112.430,116.128 112.651,116.549 113.046 C 117.159 113.619,117.411 113.684,117.794 113.366 M196.458 114.630 L 204.749 114.833 205.714 117.500 C 206.244 118.967,206.818 120.467,206.988 120.833 C 207.404 121.729,208.381 124.175,209.851 128.000 C 211.313 131.805,214.955 141.223,221.032 156.917 C 222.114 159.712,223.900 164.325,225.000 167.167 C 226.100 170.008,227.886 174.621,228.968 177.417 C 230.051 180.213,231.865 184.900,233.000 187.833 C 234.135 190.767,235.949 195.454,237.032 198.250 C 238.114 201.046,239.900 205.658,241.000 208.500 C 242.100 211.342,243.900 215.992,245.000 218.833 C 246.100 221.675,247.883 226.287,248.961 229.083 C 250.040 231.879,251.242 234.964,251.632 235.938 L 252.341 237.710 239.754 237.602 C 226.027 237.483,226.429 237.538,223.777 235.435 C 221.675 233.768,221.246 232.842,217.678 222.278 C 215.862 216.900,214.140 211.938,213.850 211.250 L 213.324 210.000 189.996 210.000 C 177.165 210.000,166.667 210.059,166.667 210.131 C 166.667 210.203,164.998 215.190,162.959 221.214 C 157.159 238.344,158.159 237.630,139.931 237.652 L 127.696 237.667 128.143 236.417 C 128.389 235.729,129.418 233.067,130.430 230.500 C 131.441 227.933,136.126 215.858,140.841 203.667 C 145.555 191.475,149.483 181.319,149.570 181.098 C 149.656 180.877,149.192 180.144,148.537 179.471 C 147.425 178.325,147.149 177.155,148.196 178.025 C 148.574 178.338,148.667 178.285,148.667 177.752 C 148.667 176.820,149.923 175.332,151.139 174.823 C 152.204 174.377,152.984 172.436,174.530 116.583 L 175.398 114.333 181.782 114.380 C 185.294 114.405,191.898 114.518,196.458 114.630 M118.109 118.628 C 121.725 122.344,121.161 126.222,117.049 125.912 C 115.852 125.822,116.212 125.000,117.448 125.000 C 119.213 125.000,120.234 123.438,119.620 121.676 C 119.217 120.521,118.667 120.335,118.667 121.355 C 118.667 124.308,114.196 125.135,112.470 122.501 C 111.212 120.581,112.541 117.333,114.585 117.333 C 115.227 117.333,115.338 117.206,115.167 116.667 C 114.788 115.475,115.505 115.953,118.109 118.628 M113.485 118.818 C 111.206 121.097,114.578 124.643,117.122 122.642 C 118.318 121.701,118.318 120.076,117.121 118.879 C 115.991 117.748,114.578 117.725,113.485 118.818 M112.445 124.310 C 113.570 125.398,114.376 126.401,114.237 126.541 C 114.098 126.680,113.195 126.016,112.231 125.064 C 110.260 123.117,109.062 122.824,108.186 124.074 C 107.355 125.259,107.561 125.929,109.333 127.802 C 110.250 128.771,111.000 129.662,111.000 129.782 C 111.000 130.442,109.983 129.758,108.110 127.838 C 106.070 125.747,105.463 124.723,106.500 125.121 C 106.835 125.249,107.000 125.106,107.000 124.686 C 107.000 123.904,108.820 122.333,109.725 122.333 C 110.097 122.333,111.319 123.222,112.445 124.310 M135.187 134.924 C 135.030 135.081,127.333 127.387,127.333 127.074 C 127.333 126.948,129.128 128.634,131.322 130.822 C 133.516 133.010,135.255 134.856,135.187 134.924 M107.335 128.501 C 108.354 129.423,108.728 131.208,108.179 132.523 C 107.716 133.631,105.926 134.866,105.324 134.494 C 104.616 134.057,105.058 134.931,106.002 135.835 C 106.553 136.364,106.877 136.923,106.721 137.079 C 106.416 137.384,100.333 131.573,100.333 130.978 C 100.333 130.773,100.617 130.712,101.000 130.833 C 101.533 131.002,101.667 130.893,101.667 130.291 C 101.667 128.038,105.489 126.831,107.335 128.501 M103.152 129.152 C 101.180 131.123,103.141 134.360,105.861 133.622 C 107.779 133.101,108.217 130.832,106.692 129.308 C 105.490 128.105,104.252 128.051,103.152 129.152 M146.167 145.667 C 151.848 151.350,156.391 156.000,156.263 156.000 C 156.134 156.000,151.373 151.350,145.683 145.667 C 139.992 139.983,135.449 135.333,135.587 135.333 C 135.725 135.333,140.486 139.983,146.167 145.667 M189.875 141.000 C 189.767 141.275,189.155 143.316,188.516 145.535 C 187.876 147.754,186.661 151.504,185.815 153.868 C 184.970 156.232,182.359 163.867,180.013 170.833 C 177.668 177.800,175.205 185.073,174.541 186.995 C 173.877 188.917,173.333 190.530,173.333 190.578 C 173.333 190.627,180.908 190.667,190.167 190.667 C 199.425 190.667,207.000 190.629,207.000 190.583 C 206.999 190.435,197.103 161.255,196.062 158.333 C 195.507 156.775,194.053 152.425,192.831 148.667 C 190.112 140.304,190.130 140.349,189.875 141.000 M150.024 176.545 C 149.233 177.550,149.154 178.295,149.750 179.107 C 150.114 179.603,150.258 179.421,150.894 177.671 C 151.703 175.441,151.301 174.921,150.024 176.545 M86.046 243.691 C 86.933 244.166,86.885 244.262,84.626 246.541 C 83.504 247.673,82.677 248.747,82.788 248.927 C 83.450 249.998,86.597 249.061,86.724 247.755 C 86.755 247.431,86.814 246.942,86.855 246.667 C 86.896 246.392,86.945 245.970,86.965 245.730 C 87.043 244.762,87.667 245.789,87.667 246.886 C 87.667 250.800,81.523 251.292,80.799 247.436 C 80.210 244.293,83.193 242.164,86.046 243.691 M82.745 244.346 C 81.612 244.801,81.011 246.641,81.660 247.667 C 81.918 248.075,82.311 247.836,83.806 246.360 C 84.812 245.366,85.559 244.429,85.465 244.277 C 85.244 243.918,83.711 243.957,82.745 244.346 M80.884 249.375 C 81.294 249.716,81.055 250.096,79.352 251.815 C 77.378 253.807,76.913 254.642,77.750 254.691 C 77.979 254.705,78.488 254.777,78.881 254.851 C 80.092 255.078,81.282 253.845,81.398 252.241 C 81.525 250.491,82.130 250.391,82.271 252.096 C 82.519 255.103,78.876 256.708,76.512 254.632 C 73.152 251.682,77.445 246.521,80.884 249.375 M77.438 249.669 C 76.565 250.021,76.000 250.985,76.000 252.125 C 76.000 253.591,76.686 253.473,78.454 251.700 C 80.478 249.670,79.968 248.650,77.438 249.669 M73.835 253.660 C 73.643 254.534,73.827 254.876,75.360 256.497 C 77.906 259.189,77.051 259.197,74.340 256.507 C 72.448 254.629,71.489 253.106,72.652 253.824 C 72.802 253.917,73.002 253.694,73.098 253.330 C 73.388 252.219,74.083 252.531,73.835 253.660 M69.840 255.008 C 70.257 255.468,70.559 255.574,70.792 255.341 C 71.364 254.769,71.690 254.959,71.491 255.750 C 71.232 256.785,73.951 259.511,74.975 259.243 C 75.773 259.035,76.213 259.494,75.589 259.884 C 74.660 260.465,74.093 260.231,72.412 258.575 C 70.892 257.078,70.572 256.898,70.031 257.237 C 69.231 257.736,68.928 257.440,69.424 256.645 C 69.741 256.137,69.669 255.879,69.013 255.181 C 68.421 254.550,68.346 254.333,68.724 254.333 C 69.002 254.333,69.505 254.637,69.840 255.008 M73.623 263.500 C 74.239 265.798,72.063 268.123,69.912 267.465 C 69.099 267.217,69.581 266.567,70.416 266.785 C 72.009 267.201,73.435 264.661,72.528 263.024 L 72.079 262.214 71.848 263.265 C 71.565 264.553,69.996 265.940,68.944 265.832 C 68.516 265.788,67.893 265.733,67.558 265.709 C 64.298 265.481,64.463 259.000,67.728 259.000 C 68.172 259.000,68.343 258.839,68.225 258.533 C 67.764 257.330,68.669 257.850,70.910 260.073 C 72.311 261.464,73.469 262.927,73.623 263.500 M67.078 260.012 C 64.664 260.982,65.979 265.000,68.712 265.000 C 71.434 265.000,71.907 260.947,69.291 260.035 C 68.072 259.610,68.078 259.610,67.078 260.012 M132.511 290.483 C 134.038 291.121,134.003 291.245,131.647 293.491 C 129.445 295.592,129.302 296.333,131.098 296.333 C 132.511 296.333,133.578 295.249,133.725 293.667 C 133.847 292.350,134.446 292.214,134.603 293.468 C 135.007 296.674,130.491 298.352,128.418 295.767 C 126.092 292.865,129.056 289.039,132.511 290.483 M130.089 291.032 C 128.689 291.550,127.922 293.500,128.659 294.666 C 128.998 295.202,132.333 292.299,132.333 291.468 C 132.333 290.968,130.976 290.704,130.089 291.032 M127.323 295.995 C 128.362 296.550,128.164 297.025,126.001 299.166 C 124.068 301.079,124.026 301.157,124.726 301.532 C 126.321 302.386,128.303 301.047,128.323 299.103 C 128.336 297.744,128.869 297.390,129.098 298.587 C 129.735 301.919,125.912 303.734,123.255 301.360 C 120.274 298.697,123.766 294.091,127.323 295.995 M123.878 297.024 C 123.240 297.526,123.000 298.022,123.000 298.838 C 123.000 300.597,123.595 300.564,125.454 298.700 C 127.610 296.538,126.287 295.130,123.878 297.024 " stroke="none" fill="#2f3a49" fill-rule="evenodd"></path><path id="path1" d="M0.000 200.000 L 0.000 400.000 200.000 400.000 L 400.000 400.000 400.000 200.000 L 400.000 0.000 200.000 0.000 L 0.000 0.000 0.000 200.000 M193.572 25.546 C 196.481 27.223,209.204 34.570,232.167 47.835 C 236.383 50.271,246.958 56.376,255.667 61.403 C 289.389 80.869,296.538 84.996,307.500 91.329 C 313.733 94.930,320.746 98.974,323.083 100.317 L 327.333 102.758 327.335 147.129 C 327.336 171.533,327.338 200.875,327.340 212.333 C 327.342 223.792,327.341 239.562,327.338 247.379 L 327.333 261.592 313.083 269.853 C 298.520 278.297,292.448 281.801,252.000 305.105 C 229.708 317.949,193.872 338.626,191.221 340.174 L 189.941 340.921 185.221 338.174 C 182.624 336.663,173.150 331.186,164.167 326.003 C 155.183 320.821,144.908 314.890,141.333 312.825 C 131.794 307.314,102.448 290.371,87.500 281.744 C 80.350 277.617,69.589 271.397,63.586 267.922 L 52.672 261.603 52.586 204.051 C 52.539 172.398,52.540 136.654,52.588 124.620 L 52.676 102.740 72.755 91.148 C 83.798 84.773,95.083 78.252,97.833 76.657 C 100.583 75.063,110.708 69.216,120.333 63.665 C 129.958 58.114,140.608 51.965,144.000 50.000 C 147.392 48.036,157.142 42.406,165.667 37.490 C 174.192 32.573,183.042 27.458,185.333 26.122 C 190.341 23.203,189.596 23.255,193.572 25.546 " stroke="none" fill="#f3f3f3" fill-rule="evenodd"></path><path id="path2" d="M175.380 115.027 C 174.988 115.448,174.667 115.952,174.668 116.146 C 174.669 116.427,172.539 122.051,171.000 125.833 C 170.851 126.200,169.951 128.525,169.000 131.000 C 168.049 133.475,167.149 135.800,167.000 136.167 C 166.851 136.533,165.951 138.858,165.000 141.333 C 164.049 143.808,163.149 146.133,163.000 146.500 C 162.851 146.867,161.951 149.192,161.000 151.667 C 160.049 154.142,159.149 156.467,159.000 156.833 C 158.851 157.200,157.951 159.525,157.000 162.000 C 156.049 164.475,155.149 166.800,155.000 167.167 C 154.851 167.533,153.951 169.858,153.000 172.333 C 152.049 174.808,151.149 177.133,151.000 177.500 C 150.851 177.867,149.951 180.192,149.000 182.667 C 148.049 185.142,147.149 187.467,147.000 187.833 C 146.851 188.200,145.951 190.525,145.000 193.000 C 144.049 195.475,143.149 197.800,143.000 198.167 C 142.851 198.533,141.951 200.858,141.000 203.333 C 140.049 205.808,139.149 208.133,139.000 208.500 C 138.851 208.867,137.951 211.192,137.000 213.667 C 136.049 216.142,135.149 218.467,134.998 218.833 C 134.848 219.200,133.952 221.525,133.007 224.000 C 132.061 226.475,131.162 228.800,131.009 229.167 C 129.856 231.918,127.997 236.909,127.999 237.250 C 128.001 237.879,151.657 237.819,153.434 237.185 C 157.334 235.794,158.639 233.943,161.325 226.000 C 162.471 222.608,164.159 217.621,165.076 214.917 L 166.742 210.000 190.055 210.000 L 213.367 210.000 213.820 211.083 C 214.068 211.679,215.781 216.642,217.626 222.112 C 221.661 234.073,222.284 235.161,226.167 237.014 C 227.403 237.604,251.192 237.942,251.756 237.377 C 251.980 237.154,251.641 235.905,250.732 233.605 C 249.985 231.714,248.304 227.392,246.996 224.000 C 243.597 215.189,240.867 208.134,238.997 203.333 C 238.105 201.042,236.306 196.392,235.000 193.000 C 233.694 189.608,231.894 184.958,231.000 182.667 C 230.106 180.375,228.306 175.725,227.000 172.333 C 225.694 168.942,223.894 164.292,223.000 162.000 C 222.106 159.708,220.306 155.058,219.000 151.667 C 217.694 148.275,215.894 143.625,215.000 141.333 C 214.106 139.042,212.308 134.392,211.005 131.000 C 208.695 124.990,208.140 123.584,206.992 120.833 C 206.686 120.100,206.090 118.525,205.666 117.333 C 205.243 116.142,204.807 115.070,204.698 114.952 C 204.589 114.834,198.109 114.630,190.297 114.499 L 176.094 114.261 175.380 115.027 M192.831 148.667 C 194.053 152.425,195.507 156.775,196.062 158.333 C 197.103 161.255,206.999 190.435,207.000 190.583 C 207.000 190.629,199.409 190.667,190.131 190.667 C 175.553 190.667,173.287 190.601,173.447 190.185 C 173.549 189.920,174.532 187.032,175.631 183.768 C 181.810 165.425,184.146 158.562,185.778 153.957 C 186.776 151.139,188.077 147.108,188.668 145.000 C 189.259 142.892,189.827 141.026,189.930 140.854 C 190.165 140.461,190.154 140.432,192.831 148.667 " stroke="none" fill="#248cfc" fill-rule="evenodd"></path><path id="path3" d="" stroke="none" fill="#8f8f8f" fill-rule="evenodd"></path><path id="path4" d="M90.846 90.833 C 94.420 94.408,97.452 97.333,97.585 97.333 C 97.718 97.333,94.905 94.408,91.333 90.833 C 87.762 87.258,84.729 84.333,84.594 84.333 C 84.459 84.333,87.272 87.258,90.846 90.833 M103.427 103.438 C 106.584 106.612,109.235 109.157,109.318 109.092 C 109.506 108.947,98.264 97.667,97.931 97.667 C 97.797 97.667,100.271 100.264,103.427 103.438 M128.845 102.368 C 125.852 104.996,128.909 109.699,132.601 108.147 C 133.770 107.655,134.755 106.009,134.603 104.801 C 134.446 103.548,133.847 103.684,133.725 105.000 C 133.578 106.583,132.511 107.667,131.098 107.667 C 129.302 107.667,129.445 106.925,131.647 104.825 C 134.003 102.578,134.038 102.455,132.511 101.816 C 130.825 101.112,130.161 101.212,128.845 102.368 M132.333 102.801 C 132.333 103.632,128.998 106.535,128.659 106.000 C 127.922 104.833,128.689 102.884,130.089 102.366 C 130.976 102.037,132.333 102.301,132.333 102.801 M123.397 107.822 C 120.410 110.559,123.453 115.073,127.223 113.498 C 128.526 112.954,129.370 111.343,129.098 109.920 C 128.869 108.723,128.336 109.078,128.323 110.436 C 128.303 112.380,126.321 113.719,124.726 112.865 C 124.026 112.490,124.068 112.412,126.001 110.499 C 128.164 108.359,128.362 107.884,127.323 107.328 C 125.802 106.514,124.668 106.656,123.397 107.822 M126.667 107.996 C 127.076 108.258,126.858 108.626,125.454 110.034 C 123.595 111.897,123.000 111.930,123.000 110.171 C 123.000 108.354,125.192 107.054,126.667 107.996 M120.213 110.898 C 120.096 111.015,120.000 111.381,120.000 111.712 C 120.000 112.109,119.830 112.247,119.500 112.121 C 118.489 111.732,119.056 112.574,121.324 114.824 C 122.602 116.092,123.756 117.022,123.888 116.890 C 124.020 116.758,123.328 115.840,122.350 114.851 C 120.781 113.262,120.597 112.932,120.776 112.038 C 120.969 111.069,120.663 110.448,120.213 110.898 M115.556 112.556 C 115.430 112.681,115.651 113.128,116.046 113.549 C 116.650 114.192,116.695 114.397,116.330 114.838 C 116.040 115.187,116.006 115.473,116.228 115.695 C 116.450 115.917,116.706 115.855,116.994 115.508 C 117.374 115.050,117.660 115.210,119.358 116.830 C 121.143 118.533,121.354 118.643,122.134 118.287 C 123.110 117.843,122.943 117.201,121.935 117.521 C 121.019 117.812,117.832 114.770,118.372 114.120 C 118.889 113.497,118.402 112.862,117.794 113.366 C 117.411 113.684,117.159 113.619,116.549 113.046 C 116.128 112.651,115.681 112.430,115.556 112.556 M115.167 116.667 C 115.338 117.206,115.227 117.333,114.585 117.333 C 112.541 117.333,111.212 120.581,112.470 122.501 C 114.196 125.135,118.667 124.308,118.667 121.355 C 118.667 120.335,119.217 120.521,119.620 121.676 C 120.234 123.438,119.213 125.000,117.448 125.000 C 116.212 125.000,115.852 125.822,117.049 125.912 C 121.161 126.222,121.725 122.344,118.109 118.628 C 115.505 115.953,114.788 115.475,115.167 116.667 M117.121 118.879 C 118.318 120.076,118.318 121.701,117.122 122.642 C 114.578 124.643,111.206 121.097,113.485 118.818 C 114.578 117.725,115.991 117.748,117.121 118.879 M108.026 123.196 C 107.462 123.671,107.000 124.341,107.000 124.686 C 107.000 125.106,106.835 125.249,106.500 125.121 C 105.463 124.723,106.070 125.747,108.110 127.838 C 109.983 129.758,111.000 130.442,111.000 129.782 C 111.000 129.662,110.250 128.771,109.333 127.802 C 107.561 125.929,107.355 125.259,108.186 124.074 C 109.062 122.824,110.260 123.117,112.231 125.064 C 113.195 126.016,114.098 126.680,114.237 126.541 C 114.615 126.163,110.508 122.333,109.725 122.333 C 109.355 122.333,108.590 122.722,108.026 123.196 M127.333 127.074 C 127.333 127.387,135.030 135.081,135.187 134.924 C 135.255 134.856,133.516 133.010,131.322 130.822 C 129.128 128.634,127.333 126.948,127.333 127.074 M102.583 128.571 C 102.079 129.102,101.667 129.876,101.667 130.291 C 101.667 130.893,101.533 131.002,101.000 130.833 C 100.617 130.712,100.333 130.773,100.333 130.978 C 100.333 131.573,106.416 137.384,106.721 137.079 C 106.877 136.923,106.553 136.364,106.002 135.835 C 105.058 134.931,104.616 134.057,105.324 134.494 C 105.926 134.866,107.716 133.631,108.179 132.523 C 109.601 129.118,105.090 125.932,102.583 128.571 M106.692 129.308 C 108.217 130.832,107.779 133.101,105.861 133.622 C 103.141 134.360,101.180 131.123,103.152 129.152 C 104.252 128.051,105.490 128.105,106.692 129.308 M145.683 145.667 C 151.373 151.350,156.134 156.000,156.263 156.000 C 156.391 156.000,151.848 151.350,146.167 145.667 C 140.486 139.983,135.725 135.333,135.587 135.333 C 135.449 135.333,139.992 139.983,145.683 145.667 M149.800 175.800 C 149.177 176.423,148.667 177.267,148.667 177.674 C 148.667 178.274,148.577 178.341,148.196 178.025 C 147.146 177.153,147.426 178.327,148.543 179.476 C 149.960 180.935,150.264 180.811,149.672 179.017 C 149.164 177.477,149.734 176.211,151.184 175.660 C 151.633 175.489,152.000 175.196,152.000 175.008 C 152.000 174.307,150.896 174.704,149.800 175.800 M52.667 241.171 C 52.667 241.431,61.999 250.667,62.262 250.667 C 62.388 250.667,60.320 248.492,57.667 245.833 C 52.885 241.043,52.667 240.840,52.667 241.171 M82.299 243.763 C 79.380 245.731,80.622 249.845,84.237 250.181 C 85.895 250.335,87.667 248.633,87.667 246.886 C 87.667 245.789,87.043 244.762,86.965 245.730 C 86.945 245.970,86.896 246.392,86.855 246.667 C 86.814 246.942,86.755 247.431,86.724 247.755 C 86.597 249.061,83.450 249.998,82.788 248.927 C 82.677 248.747,83.504 247.673,84.626 246.541 C 86.885 244.262,86.933 244.166,86.046 243.691 C 84.690 242.965,83.448 242.989,82.299 243.763 M85.465 244.277 C 85.559 244.429,84.812 245.366,83.806 246.360 C 81.651 248.488,80.677 248.103,81.662 245.513 C 82.117 244.316,84.925 243.404,85.465 244.277 M77.433 248.839 C 73.955 250.301,75.091 255.667,78.878 255.667 C 80.666 255.667,82.414 253.827,82.271 252.096 C 82.130 250.391,81.525 250.491,81.398 252.241 C 81.282 253.845,80.092 255.078,78.881 254.851 C 78.488 254.777,77.979 254.705,77.750 254.691 C 76.913 254.642,77.378 253.807,79.352 251.815 C 81.055 250.096,81.294 249.716,80.884 249.375 C 79.973 248.619,78.500 248.390,77.433 248.839 M79.667 249.663 C 80.076 249.925,79.858 250.292,78.454 251.700 C 76.686 253.473,76.000 253.591,76.000 252.125 C 76.000 250.095,78.118 248.673,79.667 249.663 M73.098 253.330 C 73.002 253.694,72.802 253.917,72.652 253.824 C 71.489 253.106,72.448 254.629,74.340 256.507 C 77.051 259.197,77.906 259.189,75.360 256.497 C 73.827 254.876,73.643 254.534,73.835 253.660 C 74.083 252.531,73.388 252.219,73.098 253.330 M69.013 255.181 C 69.669 255.879,69.741 256.137,69.424 256.645 C 68.928 257.440,69.231 257.736,70.031 257.237 C 70.572 256.898,70.892 257.078,72.412 258.575 C 74.093 260.231,74.660 260.465,75.589 259.884 C 76.213 259.494,75.773 259.035,74.975 259.243 C 73.951 259.511,71.232 256.785,71.491 255.750 C 71.690 254.959,71.364 254.769,70.792 255.341 C 70.559 255.574,70.257 255.468,69.840 255.008 C 69.505 254.637,69.002 254.333,68.724 254.333 C 68.346 254.333,68.421 254.550,69.013 255.181 M68.255 257.856 C 68.140 257.971,68.127 258.276,68.225 258.533 C 68.343 258.839,68.172 259.000,67.728 259.000 C 64.463 259.000,64.298 265.481,67.558 265.709 C 67.893 265.733,68.516 265.788,68.944 265.832 C 69.996 265.940,71.565 264.553,71.848 263.265 L 72.079 262.214 72.528 263.024 C 73.435 264.661,72.009 267.201,70.416 266.785 C 69.581 266.567,69.099 267.217,69.912 267.465 C 72.063 268.123,74.239 265.798,73.623 263.500 C 73.341 262.448,68.623 257.488,68.255 257.856 M69.291 260.035 C 71.907 260.947,71.434 265.000,68.712 265.000 C 65.979 265.000,64.664 260.982,67.078 260.012 C 68.078 259.610,68.072 259.610,69.291 260.035 M61.833 264.396 C 60.667 265.043,59.969 265.917,60.466 266.107 C 60.706 266.199,61.148 265.988,61.448 265.637 C 62.322 264.616,63.251 264.884,65.190 266.719 C 67.582 268.981,68.000 268.499,65.651 266.187 C 63.652 264.221,62.838 263.838,61.833 264.396 M80.333 268.728 C 80.333 269.041,100.358 289.087,100.514 288.931 C 100.584 288.861,96.072 284.236,90.487 278.654 C 84.903 273.071,80.333 268.605,80.333 268.728 M128.845 291.035 C 125.876 293.641,128.939 298.353,132.601 296.813 C 133.770 296.322,134.755 294.676,134.603 293.468 C 134.446 292.214,133.847 292.350,133.725 293.667 C 133.578 295.249,132.511 296.333,131.098 296.333 C 129.302 296.333,129.445 295.592,131.647 293.491 C 134.003 291.245,134.038 291.121,132.511 290.483 C 130.825 289.779,130.161 289.879,128.845 291.035 M132.333 291.468 C 132.333 292.299,128.998 295.202,128.659 294.666 C 127.922 293.500,128.689 291.550,130.089 291.032 C 130.976 290.704,132.333 290.968,132.333 291.468 M123.397 296.488 C 120.447 299.191,123.427 303.751,127.131 302.203 C 128.528 301.620,129.379 300.055,129.098 298.587 C 128.869 297.390,128.336 297.744,128.323 299.103 C 128.303 301.047,126.321 302.386,124.726 301.532 C 124.026 301.157,124.068 301.079,126.001 299.166 C 128.164 297.025,128.362 296.550,127.323 295.995 C 125.802 295.181,124.668 295.323,123.397 296.488 M126.667 296.663 C 127.076 296.925,126.858 297.292,125.454 298.700 C 123.595 300.564,123.000 300.597,123.000 298.838 C 123.000 297.021,125.192 295.721,126.667 296.663 M120.150 299.693 C 120.024 299.897,120.132 300.275,120.390 300.532 C 120.792 300.935,120.865 300.908,120.908 300.340 C 120.966 299.569,120.482 299.156,120.150 299.693 " stroke="none" fill="#7c7c7c" fill-rule="evenodd"></path></g></svg>